<?xml version="1.0" standalone="no"?>
<!DOCTYPE svg PUBLIC "-//W3C//DTD SVG 20010904//EN"
 "http://www.w3.org/TR/2001/REC-SVG-20010904/DTD/svg10.dtd">
<svg version="1.0" xmlns="http://www.w3.org/2000/svg"
 width="300.000000pt" height="274.000000pt" viewBox="0 0 300.000000 274.000000"
 preserveAspectRatio="xMidYMid meet">
<metadata>
Created by potrace 1.10, written by Peter Selinger 2001-2011
</metadata>
<g transform="translate(0.000000,274.000000) scale(0.100000,-0.100000)"
fill="#000000" stroke="none">
<path d="M1066 2724 c-8 -21 7 -47 39 -68 14 -9 25 -22 25 -28 0 -8 -142 -9
-548 -4 -301 4 -555 4 -565 0 -38 -14 -12 -73 39 -88 12 -4 53 -40 92 -81 62
-67 73 -75 106 -75 36 0 96 -33 96 -53 0 -5 -19 -35 -41 -68 -52 -74 -48 -89
24 -89 50 0 55 -2 102 -51 45 -45 54 -50 88 -47 l37 4 0 -88 c0 -66 4 -90 16
-102 8 -9 19 -15 22 -13 4 2 47 28 95 57 l88 52 95 -43 95 -42 52 51 53 52 87
0 87 0 0 -435 0 -435 -164 0 c-142 0 -165 -2 -170 -16 -7 -19 4 -31 244 -282
l165 -172 7 -113 c4 -61 5 -152 2 -202 -3 -49 -1 -103 3 -118 9 -31 129 -182
153 -192 10 -5 32 12 69 52 107 116 98 89 106 343 l7 225 98 105 c54 58 113
119 130 135 81 75 189 205 184 220 -5 13 -32 15 -170 15 l-164 0 0 435 0 435
89 0 89 0 39 -43 c21 -24 44 -47 51 -51 8 -5 50 8 107 34 l94 42 88 -52 c48
-29 91 -55 95 -57 3 -2 14 4 22 13 12 12 16 36 16 102 l0 88 38 -4 c33 -3 42
2 87 47 47 48 52 51 101 51 36 0 54 4 57 14 3 8 -12 42 -34 76 -21 33 -39 64
-39 68 0 19 61 52 96 52 33 0 44 8 106 75 39 41 80 77 92 81 58 18 78 78 30
90 -15 4 -269 4 -565 0 -355 -5 -539 -4 -539 2 0 6 13 21 28 34 36 30 43 43
36 62 -5 14 -52 16 -434 16 -380 0 -429 -2 -434 -16z m768 -68 c-253 -226
-331 -289 -346 -280 -11 7 -308 265 -358 311 -12 11 47 13 369 13 l383 0 -48
-44z m-604 -76 c10 -6 -181 -10 -547 -10 -310 0 -563 -4 -563 -8 0 -4 25 -32
55 -62 l56 -55 578 4 c420 2 580 0 585 -8 5 -8 -35 -11 -143 -11 -83 0 -151
-3 -151 -8 0 -4 65 -67 145 -141 l145 -133 0 -956 0 -957 55 -60 55 -60 55 60
55 60 0 957 0 957 143 131 c78 73 144 136 145 141 2 5 -64 9 -149 9 -114 0
-150 3 -142 11 13 13 586 14 950 3 l201 -7 63 64 63 64 -565 5 c-310 3 -553 8
-539 13 14 4 284 6 600 5 447 -2 569 -6 550 -15 -14 -6 -56 -43 -95 -83 l-70
-71 -411 7 -411 7 -149 -138 c-82 -76 -152 -143 -156 -149 -3 -6 -8 -441 -10
-966 l-3 -956 -59 -69 c-33 -39 -63 -70 -67 -70 -4 0 -34 33 -68 73 l-61 73 0
953 0 954 -72 69 c-40 38 -111 105 -156 148 l-84 78 -411 -7 -412 -7 -75 75
c-41 42 -80 76 -87 76 -6 0 -15 5 -18 10 -8 13 1154 13 1175 0z m-831 -64 c10
-11 0 -14 -56 -18 -67 -5 -103 3 -103 22 0 16 146 12 159 -4z m911 -1 c11 -13
-35 -15 -403 -15 -356 0 -416 2 -427 15 -11 13 35 15 403 15 356 0 416 -2 427
-15z m1208 -1 c-19 -19 -15 -19 -477 -16 -322 2 -362 4 -351 17 11 13 71 15
428 15 382 0 415 -1 400 -16z m232 1 c-9 -11 -33 -15 -87 -15 -66 0 -74 2 -63
15 9 11 33 15 87 15 66 0 74 -2 63 -15z m-1686 -104 c7 -10 -35 -15 -294 -36
-393 -32 -363 -32 -411 3 l-42 32 224 3 c123 1 290 3 371 5 81 1 149 -2 152
-7z m1474 -1 l146 0 -40 -30 c-49 -37 -42 -37 -414 -5 -162 14 -296 25 -298
25 -2 0 0 5 4 12 5 8 67 9 232 5 124 -4 291 -7 370 -7z m-1443 -30 c3 -5 3
-10 -1 -10 -4 0 -176 -36 -381 -81 -206 -44 -377 -79 -379 -76 -4 4 61 112 70
118 2 1 637 56 663 58 12 0 25 -3 28 -9z m1170 -20 c352 -27 323 -21 369 -86
21 -30 36 -58 33 -61 -3 -2 -174 32 -380 76 -205 45 -377 81 -381 81 -4 0 -4
5 -1 10 4 6 26 8 53 5 26 -3 164 -14 307 -25z m-1135 -15 c7 -8 11 -15 8 -15
-2 0 -141 -49 -308 -110 -168 -60 -311 -110 -319 -110 -12 0 -83 72 -92 94 -4
8 625 152 677 155 12 0 27 -6 34 -14z m960 -25 c102 -23 248 -54 325 -70 77
-16 151 -32 165 -36 23 -5 22 -7 -30 -54 -30 -27 -60 -49 -65 -50 -13 0 -616
217 -624 225 -6 7 18 25 34 25 6 0 93 -18 195 -40z m-910 -15 c8 -9 9 -19 4
-24 -7 -6 -514 -321 -571 -355 -10 -6 -13 16 -13 96 l0 104 268 96 c147 53
274 97 283 97 9 1 22 -6 29 -14z m948 -82 l272 -98 0 -103 0 -104 -37 23
c-165 100 -540 333 -547 340 -10 9 10 39 28 39 6 0 134 -43 284 -97z m-913
-15 c-56 -67 -244 -258 -254 -258 -24 0 -164 71 -155 79 5 5 97 63 204 129
191 119 195 121 214 102 19 -18 18 -19 -9 -52z m803 -67 c100 -62 182 -115
182 -117 0 -7 -148 -74 -162 -74 -11 0 -238 232 -266 272 -12 17 -11 22 4 39
15 17 20 17 38 6 12 -8 103 -65 204 -126z m-738 -17 l0 -84 -102 0 -102 0 34
38 c164 179 170 180 170 46z m572 -6 l70 -78 -101 0 -101 0 0 83 c0 94 12 118
43 89 11 -9 51 -52 89 -94z m-542 -573 l0 -634 25 -27 c40 -43 31 -64 -10 -24
l-35 34 0 649 c0 429 3 646 10 642 6 -4 10 -228 10 -640z m365 -685 c-32 -32
-35 -33 -35 -13 0 12 6 26 14 30 35 21 36 43 36 676 0 343 3 627 8 631 4 4 8
-284 10 -640 l2 -649 -35 -35z m-516 228 l126 -2 -140 -6 -140 -5 178 -184
c97 -102 177 -190 177 -195 -1 -13 -389 384 -390 398 0 5 14 6 31 2 17 -3 88
-7 158 -8z m871 5 c-1 -13 -389 -409 -390 -397 0 6 80 94 177 195 l178 184
-140 5 -140 4 140 6 c77 3 148 7 158 8 9 1 17 -1 17 -5z m-807 -82 l-53 -6 96
-102 c53 -57 94 -103 92 -103 -2 0 -53 50 -113 110 l-110 110 70 -2 c70 -1 70
-1 18 -7z m531 -101 c-59 -60 -109 -110 -112 -110 -2 0 39 47 92 104 l97 105
-53 4 c-50 3 -49 3 15 5 l69 2 -108 -110z"/>
<path d="M1156 2682 c5 -5 82 -72 171 -150 89 -78 166 -142 172 -142 10 0 324
270 336 289 4 8 -98 11 -341 11 -192 0 -344 -4 -338 -8z"/>
</g>
</svg>
