<?xml version="1.0" standalone="no"?>
<!DOCTYPE svg PUBLIC "-//W3C//DTD SVG 20010904//EN"
 "http://www.w3.org/TR/2001/REC-SVG-20010904/DTD/svg10.dtd">
<svg version="1.0" xmlns="http://www.w3.org/2000/svg"
 width="300.000000pt" height="337.000000pt" viewBox="0 0 300.000000 337.000000"
 preserveAspectRatio="xMidYMid meet">
<metadata>
Created by potrace 1.10, written by Peter Selinger 2001-2011
</metadata>
<g transform="translate(0.000000,337.000000) scale(0.100000,-0.100000)"
fill="#000000" stroke="none">
<path d="M1465 3356 c-118 -30 -289 -127 -359 -205 -10 -11 -26 -16 -39 -14
-15 3 -30 -4 -46 -21 -13 -13 -29 -22 -37 -19 -7 3 -20 -2 -29 -11 -14 -14
-20 -13 -61 9 -44 23 -129 43 -140 32 -3 -3 3 -18 14 -34 11 -15 23 -43 27
-60 6 -28 3 -34 -19 -44 -14 -7 -33 -23 -42 -36 -8 -14 -38 -35 -66 -48 -28
-13 -56 -34 -62 -47 -8 -15 -20 -22 -34 -21 -12 2 -22 -1 -22 -6 0 -17 -76
-91 -93 -91 -10 0 -30 18 -45 40 -15 21 -30 39 -33 40 -10 0 -29 -50 -29 -78
0 -15 9 -45 20 -67 26 -52 25 -69 -6 -94 -14 -11 -23 -25 -19 -32 4 -6 2 -22
-6 -35 -9 -18 -21 -24 -46 -24 -65 0 -131 -44 -148 -97 -6 -21 -3 -23 27 -23
37 0 54 -9 52 -27 -1 -7 -3 -14 -4 -15 -1 -2 -4 -21 -6 -43 -2 -22 -10 -45
-19 -51 -15 -11 -15 -13 0 -16 14 -3 13 -8 -6 -43 -16 -30 -22 -61 -24 -125
-2 -47 -4 -95 -4 -107 -1 -19 -7 -23 -34 -23 -19 0 -55 11 -81 24 l-48 24 6
-41 c9 -53 62 -127 109 -150 36 -18 37 -20 37 -77 0 -32 5 -62 10 -65 6 -3 10
-28 10 -54 0 -26 5 -52 11 -58 6 -6 12 -44 14 -84 3 -69 5 -75 36 -100 28 -23
31 -30 26 -58 -7 -35 8 -75 24 -66 5 4 9 -7 9 -24 0 -35 -25 -46 -85 -39 -19
2 -35 1 -35 -4 0 -4 15 -24 32 -44 34 -38 97 -73 133 -74 29 0 95 -48 95 -68
0 -9 9 -23 20 -30 11 -6 29 -30 40 -53 12 -22 24 -38 27 -35 4 3 12 1 19 -5 9
-8 10 -18 2 -40 -17 -49 -6 -149 21 -193 l24 -39 16 31 c9 17 28 44 43 60 25
28 28 29 65 19 24 -6 43 -19 49 -31 5 -12 18 -22 29 -24 12 -2 38 -20 59 -42
33 -34 41 -38 63 -29 14 5 27 8 27 7 1 -2 11 -16 21 -33 22 -35 21 -76 -2
-111 -8 -14 -13 -27 -10 -30 13 -13 109 9 139 32 62 44 79 48 119 26 22 -13
40 -17 45 -12 6 6 25 2 49 -11 31 -17 43 -19 57 -10 27 17 28 15 28 -37 0 -91
47 -204 117 -282 25 -28 48 -50 52 -50 5 0 2 24 -6 53 -27 98 5 287 48 287 11
0 29 5 39 10 25 13 40 -12 33 -58 -4 -26 -2 -32 12 -32 20 0 117 54 134 74 11
13 18 13 53 0 41 -14 120 -19 131 -8 3 4 0 16 -8 28 -8 11 -15 27 -15 36 0 21
93 81 103 66 5 -7 15 -3 30 15 26 32 100 49 113 27 5 -7 11 -37 14 -67 l5 -55
33 33 c44 45 62 81 73 153 11 68 60 148 90 148 10 0 23 9 29 19 5 11 25 29 44
41 30 18 45 20 93 15 48 -5 64 -3 91 15 l34 21 -41 29 c-23 17 -41 37 -41 46
0 24 30 75 40 69 6 -4 10 9 10 29 0 19 5 38 10 41 6 4 17 23 26 43 8 20 23 46
33 57 11 11 22 35 26 52 3 18 10 33 15 33 16 0 48 -50 55 -87 l8 -38 23 50
c30 64 31 134 2 195 -11 25 -21 54 -21 65 1 33 36 102 57 111 31 14 66 73 66
111 0 34 -1 34 -32 27 -61 -13 -62 -12 -70 46 -6 38 -5 62 3 78 10 17 10 25 1
34 -7 7 -12 20 -12 29 0 10 -6 20 -12 23 -10 5 -10 7 -1 12 7 3 15 28 19 54 7
53 23 66 77 61 32 -3 33 -1 7 48 -21 42 -57 76 -112 105 -47 25 -57 74 -28
138 24 52 26 128 4 169 l-15 31 -33 -39 c-32 -36 -34 -37 -61 -23 -21 11 -25
20 -22 39 6 31 -9 74 -23 66 -6 -4 -10 6 -10 24 0 29 -29 59 -43 44 -3 -3 -8
6 -12 21 -3 14 -7 37 -10 51 -3 14 -10 23 -15 20 -6 -4 -10 12 -10 37 0 75
-47 197 -70 183 -6 -4 -10 -14 -10 -24 0 -28 -42 -61 -68 -54 -12 3 -22 9 -22
14 0 4 -15 22 -32 39 l-33 31 36 -6 c42 -8 97 12 134 49 34 34 31 46 -9 46
l-34 0 13 38 c7 20 12 38 10 40 -2 2 -26 -4 -53 -14 -48 -17 -52 -17 -145 4
-53 12 -121 22 -151 22 -44 0 -57 4 -65 19 -6 11 -37 28 -73 39 -185 60 -211
72 -258 116 -26 25 -65 49 -86 55 -50 14 -136 13 -199 -3z m140 -47 c35 -6 77
-23 102 -41 53 -36 133 -72 233 -105 93 -30 100 -36 100 -83 0 -47 -9 -54 -90
-75 -36 -9 -108 -30 -160 -46 -55 -18 -120 -31 -155 -32 -53 -2 -67 2 -110 31
-37 24 -59 32 -94 32 -60 0 -125 -36 -129 -70 -2 -19 -21 -36 -82 -72 -43 -26
-84 -49 -91 -50 -17 -4 -48 77 -48 128 -1 77 24 134 91 207 73 77 151 127 246
155 118 35 113 35 187 21z m-728 -269 c22 -26 16 -50 -12 -50 -10 0 -45 76
-45 98 0 8 34 -21 57 -48z m1383 35 c23 -8 70 -15 104 -15 49 -1 57 -3 42 -11
-10 -6 -36 -9 -57 -6 -22 3 -39 2 -39 -3 0 -18 36 -35 84 -40 l51 -6 -38 -8
c-29 -7 -58 -2 -135 22 -53 17 -121 34 -149 37 -29 4 -53 10 -53 14 0 33 114
43 190 16z m-1205 -32 c-8 -34 -23 -53 -41 -53 -8 0 -14 -5 -14 -11 0 -6 7 -8
17 -5 10 4 14 3 9 -1 -4 -4 -22 -13 -39 -20 -28 -10 -29 -12 -8 -12 45 -2 3
-29 -55 -37 -52 -6 -76 -24 -33 -24 11 0 18 -4 14 -9 -3 -6 -37 -13 -75 -17
-59 -6 -68 -9 -53 -19 15 -11 12 -14 -20 -24 -39 -13 -52 -37 -14 -26 21 6 21
6 3 -9 -11 -9 -30 -16 -41 -16 -12 0 -37 -5 -56 -12 l-34 -12 30 -12 30 -12
-45 -12 c-36 -10 -41 -14 -25 -20 16 -6 11 -12 -35 -43 -30 -21 -47 -37 -38
-37 27 0 12 -24 -30 -48 -34 -20 -35 -22 -12 -22 23 -1 22 -3 -20 -40 -25 -22
-53 -43 -62 -46 -35 -11 -18 -24 22 -18 22 4 40 4 40 0 0 -19 -38 -60 -73 -78
-38 -19 -39 -21 -23 -34 24 -17 12 -34 -25 -34 -29 0 -39 -13 -19 -25 15 -9
12 -45 -3 -45 -7 0 -22 -7 -33 -15 -19 -15 -19 -16 1 -13 27 4 32 -28 6 -37
-27 -8 -27 -25 0 -25 15 0 19 -4 15 -16 -3 -9 -6 -22 -6 -30 0 -8 -15 -28 -32
-45 l-32 -29 27 0 c34 0 34 -8 0 -37 -16 -13 -20 -20 -10 -17 14 5 17 0 17
-27 0 -18 -7 -40 -16 -50 -19 -21 -11 -41 13 -32 28 11 10 -74 -23 -108 -15
-16 -23 -29 -16 -29 6 0 14 5 17 10 3 6 10 10 16 10 14 0 11 -26 -6 -40 -8 -7
-14 -24 -14 -39 1 -17 3 -20 6 -8 6 23 33 22 33 -2 0 -11 -10 -36 -21 -56 -12
-20 -18 -39 -14 -43 3 -4 11 1 16 11 6 9 14 17 19 17 15 0 12 -28 -6 -56 -19
-28 -12 -43 11 -24 13 10 15 9 15 -8 0 -30 -32 -93 -44 -89 -6 2 -12 22 -14
46 -2 23 -7 39 -13 36 -5 -4 -9 21 -9 59 0 36 -4 66 -9 66 -13 0 -22 100 -10
123 10 17 9 19 -5 14 -15 -6 -16 0 -11 51 3 31 8 107 11 167 8 168 8 169 32
202 25 36 29 51 7 33 -25 -20 -19 10 8 38 15 17 18 26 10 29 -15 5 10 76 37
108 10 11 20 32 24 46 3 14 21 43 41 64 25 28 31 41 22 47 -9 5 -6 12 11 23
12 9 22 23 22 31 0 7 15 31 33 51 19 21 44 59 57 86 22 45 106 117 136 117 7
0 11 8 10 18 -1 12 8 18 32 20 17 2 32 9 32 15 0 19 46 57 67 57 11 0 28 9 38
20 10 11 25 20 33 20 9 0 25 9 36 19 12 11 39 26 61 33 22 7 38 17 37 22 -5
12 19 26 47 26 20 0 22 -3 16 -27z m1176 -64 c16 -11 29 -29 29 -39 0 -13 8
-20 27 -22 19 -2 32 -12 41 -31 8 -15 26 -33 40 -38 15 -6 41 -25 58 -42 17
-18 43 -40 57 -50 15 -10 27 -26 27 -37 0 -10 13 -26 29 -36 27 -16 65 -81 66
-114 0 -8 10 -19 23 -25 24 -10 38 -38 33 -68 -1 -9 7 -30 19 -46 21 -31 54
-99 55 -116 1 -5 7 -21 14 -34 7 -12 10 -33 7 -44 -3 -13 2 -29 13 -42 24 -25
52 -120 51 -171 0 -22 4 -75 8 -119 5 -45 6 -82 1 -86 -5 -3 -2 -27 7 -53 13
-38 14 -50 4 -56 -9 -6 -9 -12 0 -29 8 -17 9 -31 1 -53 -6 -17 -11 -44 -11
-60 0 -19 -4 -27 -11 -22 -8 5 -10 -8 -6 -42 6 -62 -19 -161 -44 -175 -13 -7
-19 -21 -19 -47 0 -23 -9 -51 -25 -74 -14 -20 -25 -44 -25 -52 0 -9 -6 -16
-14 -16 -8 0 -18 -19 -25 -45 -7 -28 -17 -45 -26 -45 -8 0 -18 -12 -21 -26
-15 -58 -104 -166 -129 -157 -6 2 -21 -18 -34 -44 -18 -37 -25 -44 -33 -32 -7
10 -11 11 -14 2 -9 -22 -154 -158 -182 -170 -15 -7 -36 -12 -48 -13 -11 0 -29
-9 -39 -20 -10 -12 -25 -18 -32 -16 -7 3 -15 1 -18 -5 -9 -14 -82 -49 -89 -42
-3 3 -24 -7 -47 -23 -35 -24 -53 -29 -103 -29 -34 -1 -71 -6 -83 -13 -29 -16
-36 -15 -29 3 7 19 1 19 -27 1 -19 -12 -97 -19 -97 -8 0 18 50 84 68 88 30 8
39 -2 24 -27 -12 -18 -11 -19 5 -11 10 6 27 20 37 31 25 27 36 27 28 -1 -5
-20 1 -18 43 17 27 22 46 33 43 25 -23 -62 -19 -64 28 -13 37 40 58 54 88 59
37 6 39 6 33 -16 -5 -18 4 -13 37 23 49 54 65 61 39 17 -9 -17 -21 -30 -25
-30 -4 0 -8 -6 -8 -12 0 -7 33 19 73 58 83 82 112 98 105 59 -7 -34 -2 -32 22
13 17 29 20 32 17 12 -3 -14 -8 -34 -12 -44 -6 -13 -5 -17 3 -12 6 4 19 32 28
64 19 61 34 87 34 59 0 -29 18 -19 30 18 6 19 16 35 21 35 14 0 10 -43 -6 -64
-8 -11 -15 -24 -15 -30 0 -21 31 32 61 107 30 75 48 95 50 60 1 -10 1 -21 0
-25 0 -5 3 -8 9 -8 5 0 10 12 10 26 0 14 8 42 17 62 l17 36 15 -35 16 -34 3
50 c2 29 6 44 11 36 5 -8 12 4 21 33 13 49 19 53 38 34 9 -9 12 -1 13 38 0 27
4 58 8 68 7 18 8 18 25 -5 l18 -24 -6 37 c-6 33 -5 37 11 31 10 -3 24 -13 32
-22 12 -14 13 -13 8 9 -2 14 -11 41 -20 60 -20 47 -7 86 23 70 24 -13 25 -8 5
30 -14 26 -14 29 0 24 13 -5 14 -2 5 21 -13 33 -13 38 1 30 5 -4 15 -19 21
-33 19 -48 18 -8 -1 53 -10 33 -18 61 -16 63 2 2 13 -1 24 -8 24 -13 26 -5 6
30 -8 14 -14 36 -15 49 l0 24 25 -23 c31 -29 32 -12 4 50 -12 27 -16 46 -10
48 6 2 4 13 -5 28 -19 28 -13 30 21 8 30 -20 31 -14 5 28 -24 40 -27 70 -4 61
10 -4 7 6 -10 32 -30 44 -35 81 -10 71 15 -6 15 -5 0 16 -22 30 -38 69 -31 76
3 3 14 -3 25 -13 32 -29 23 -4 -15 44 -41 51 -42 55 -15 46 26 -8 26 7 -1 31
-17 15 -49 74 -49 90 0 3 11 -3 25 -12 37 -24 30 -1 -10 35 -19 17 -35 32 -35
34 0 2 12 2 28 0 26 -5 26 -4 -8 17 -34 22 -79 68 -80 83 0 4 7 7 15 7 25 0
17 17 -20 47 -39 31 -44 43 -17 43 10 0 22 -3 28 -7 5 -5 -1 2 -14 15 -13 12
-33 22 -46 22 -23 0 -94 65 -83 76 3 4 25 -1 48 -10 36 -15 40 -15 30 -2 -7 8
-28 20 -47 26 -19 6 -34 16 -34 21 0 13 7 11 35 -7 13 -9 30 -14 37 -11 14 5
-107 67 -132 67 -12 1 -12 3 3 14 24 19 22 21 -28 40 -48 19 -53 40 -7 30 51
-10 -4 23 -59 36 -50 12 -66 30 -27 30 26 0 19 9 -12 15 -30 6 -38 15 -14 16
38 1 -18 18 -63 18 -23 1 -48 4 -57 7 -29 11 -17 24 22 24 44 1 27 14 -33 25
-22 4 -34 10 -27 12 24 9 11 19 -19 15 -22 -3 -30 -1 -25 7 4 6 35 11 73 11
50 0 72 -5 94 -21z m-279 -64 c-3 -27 2 -42 23 -66 l26 -32 -38 -39 -38 -39
-22 26 c-21 24 -22 27 -7 50 17 25 12 45 -11 45 -15 0 -55 -59 -55 -82 0 -8
11 -25 25 -38 14 -13 25 -30 25 -37 0 -7 -25 -37 -55 -67 -30 -29 -55 -58 -55
-65 0 -7 -4 -9 -10 -6 -17 10 -11 81 8 105 16 19 17 29 8 61 -9 34 -7 42 12
68 12 17 22 35 22 40 0 6 11 18 25 27 13 9 27 25 31 36 5 18 53 47 79 48 7 0
9 -14 7 -35z m107 -4 l35 -28 -23 -12 c-19 -11 -26 -10 -42 5 -18 16 -27 64
-11 64 4 0 22 -13 41 -29z m-1017 -41 c2 -22 2 -40 0 -40 -7 0 -30 65 -26 72
12 19 22 5 26 -32z m488 26 c0 -3 -4 -8 -10 -11 -5 -3 -10 -1 -10 4 0 6 5 11
10 11 6 0 10 -2 10 -4z m1009 -68 c2 -54 -22 -75 -49 -43 -10 13 -8 23 11 60
25 47 37 42 38 -17z m-1150 35 c3 -2 -2 -10 -10 -19 -15 -14 -119 -47 -119
-37 0 2 12 20 26 39 24 31 30 34 63 28 20 -4 38 -8 40 -11z m359 -4 c-5 -35
-32 -46 -62 -26 -42 28 -34 47 20 47 41 0 45 -2 42 -21z m-166 -11 c-7 -7 -12
-8 -12 -2 0 14 12 26 19 19 2 -3 -1 -11 -7 -17z m629 4 c4 -4 -15 -26 -42 -50
l-49 -44 0 37 c0 57 16 78 53 71 17 -4 34 -10 38 -14z m-972 -42 c-43 -51 -53
-56 -79 -40 -12 7 -12 12 -3 21 15 15 105 69 116 69 5 0 -11 -22 -34 -50z
m227 34 l39 -16 -27 -22 c-46 -36 -188 -119 -194 -113 -7 6 124 167 136 167 4
0 25 -7 46 -16z m-475 -26 c20 -33 21 -69 2 -175 -11 -66 -61 -25 -64 52 -2
52 20 155 34 155 4 0 16 -15 28 -32z m-99 -18 c-4 -34 -18 -46 -37 -30 -18 15
-20 46 -2 53 25 11 42 1 39 -23z m653 0 c7 -11 -35 -30 -68 -30 -20 0 -19 2 8
20 33 22 51 25 60 10z m-236 -40 c-18 -22 -34 -40 -35 -40 -11 0 -54 25 -54
30 0 13 24 28 60 38 59 17 62 14 29 -28z m780 -12 c1 -3 -9 -4 -21 0 -20 5
-21 2 -15 -34 4 -21 9 -51 13 -65 4 -18 0 -31 -12 -44 -17 -17 -18 -16 -28 26
-8 33 -16 45 -32 47 -25 4 -40 -24 -23 -44 18 -22 1 -108 -26 -134 -25 -24
-44 -22 -83 8 -20 15 -21 21 -12 48 6 17 22 36 35 42 14 6 27 22 31 36 3 13
40 54 82 91 66 59 77 65 83 49 4 -11 8 -22 8 -26z m-1273 -14 c8 -18 14 -43
14 -55 0 -18 -6 -15 -39 22 -36 40 -38 45 -24 61 19 22 31 15 49 -28z m798 23
l28 -23 -123 -36 c-138 -41 -214 -55 -223 -40 -10 16 105 79 169 92 33 7 67
16 75 21 24 14 43 10 74 -14z m619 -17 c-18 -46 -33 -44 -33 6 0 29 3 34 24
34 24 0 24 0 9 -40z m-1108 -4 c59 -25 72 -120 23 -166 -29 -27 -43 -25 -67 9
-23 32 -26 76 -10 134 11 43 9 41 54 23z m-659 -52 c16 -10 17 -13 5 -28 -22
-26 -38 -19 -55 24 -22 55 -20 63 7 37 13 -12 32 -27 43 -33z m1706 -54 c13
-20 15 -35 8 -70 -6 -32 -4 -57 6 -85 13 -38 13 -41 -7 -57 -12 -10 -27 -18
-34 -18 -7 0 -25 -14 -39 -31 -21 -24 -27 -27 -32 -15 -3 8 4 29 16 46 19 27
21 35 10 60 -11 28 -23 34 -57 33 -40 -2 20 48 64 53 14 1 30 7 35 12 13 13 0
52 -17 52 -8 0 -14 15 -17 40 -2 22 -1 40 3 40 3 0 12 12 20 27 l14 26 5 -44
c3 -24 13 -55 22 -69z m138 89 c0 -5 -10 -9 -21 -9 -18 0 -19 2 -9 15 12 15
30 12 30 -6z m-630 -41 c0 -10 -2 -10 -58 4 l-47 12 40 12 c34 10 42 9 53 -4
6 -9 12 -19 12 -24z m-796 -26 c4 -51 38 -95 94 -119 31 -14 45 -26 53 -51 10
-29 8 -35 -13 -52 -23 -19 -23 -19 -42 6 -14 19 -21 22 -32 13 -18 -15 -18
-28 1 -49 13 -14 13 -19 1 -36 -11 -14 -18 -16 -26 -8 -13 13 -14 33 -4 114 6
51 4 59 -21 88 -47 57 -77 31 -33 -28 29 -40 17 -82 -25 -87 -28 -4 -29 -3
-21 29 5 18 9 53 9 78 0 25 5 54 12 65 6 11 14 37 18 58 9 48 25 36 29 -21z
m1456 -26 c-16 -32 -21 -53 -16 -78 3 -18 9 -52 12 -75 4 -24 13 -48 20 -54
16 -13 19 -65 4 -74 -6 -3 -42 -10 -80 -14 -81 -8 -90 2 -35 43 40 31 43 49
16 89 -25 39 -22 145 5 165 56 39 89 57 92 50 2 -4 -6 -28 -18 -52z m-1569
-54 c11 -34 5 -82 -10 -82 -14 0 -31 60 -25 85 4 18 -2 29 -30 50 -29 22 -34
30 -25 41 10 12 18 8 45 -23 18 -21 38 -53 45 -71z m859 87 c20 -5 44 -15 55
-23 18 -14 7 -15 -113 -16 -144 0 -160 7 -91 43 35 18 68 17 149 -4z m-226
-39 c-18 -18 -45 -33 -67 -37 -34 -5 -37 -4 -37 19 0 22 6 26 53 35 82 16 84
15 51 -17z m-154 -20 c0 -22 -4 -40 -10 -40 -11 0 -13 39 -4 64 10 26 14 19
14 -24z m1177 15 c3 -9 -2 -24 -11 -34 -9 -10 -16 -26 -16 -37 -1 -15 -4 -14
-15 8 -12 21 -13 32 -3 52 13 29 36 34 45 11z m-1780 -17 c35 -33 30 -50 -14
-46 -32 2 -37 6 -35 23 8 52 15 55 49 23z m790 5 c-4 -3 -10 -3 -14 0 -3 4 0
7 7 7 7 0 10 -3 7 -7z m268 -13 c8 -12 -42 -12 -70 0 -16 7 -11 9 22 9 23 1
45 -3 48 -9z m30 -74 c114 -37 197 -89 296 -186 151 -149 218 -297 226 -500 4
-94 1 -131 -16 -203 -11 -48 -27 -100 -34 -114 -13 -23 -15 -12 -20 118 -8
225 -57 353 -182 475 -137 133 -289 202 -470 211 -133 7 -223 -13 -345 -74
-162 -81 -279 -219 -336 -398 -23 -69 -26 -97 -26 -203 1 -67 4 -133 7 -145 6
-22 6 -22 -10 -2 -9 11 -26 52 -38 90 -19 59 -22 93 -22 220 0 158 13 222 67
329 99 197 298 353 512 402 97 22 291 12 391 -20z m755 -17 c0 -20 -38 -51
-52 -43 -11 7 -10 37 2 70 10 26 11 26 30 9 11 -10 20 -26 20 -36z m-1880 -27
c0 -10 -6 -12 -17 -7 -10 4 -26 10 -35 12 -18 5 -23 15 -12 25 9 10 64 -16 64
-30z m90 -23 c0 -5 -7 -9 -15 -9 -9 0 -15 9 -15 21 0 18 2 19 15 9 8 -7 15
-16 15 -21z m1875 1 c11 -12 15 -24 9 -28 -5 -4 -26 -23 -48 -42 l-39 -35 6
39 c6 39 31 86 46 86 4 0 16 -9 26 -20z m226 -85 c-11 -25 -24 -45 -29 -45 -5
0 -15 14 -22 30 -12 28 -10 32 26 73 l39 42 3 -27 c2 -15 -6 -48 -17 -73z
m-771 75 c11 -7 12 -12 3 -21 -13 -13 -33 -4 -33 17 0 16 9 18 30 4z m-1715
-10 c5 -7 -7 -42 -20 -58 -1 -1 -24 8 -51 20 l-49 21 30 13 c36 16 82 18 90 4z
m298 -36 c14 -17 28 -24 53 -24 30 0 34 -3 34 -27 0 -16 -5 -35 -10 -43 -14
-22 -44 0 -48 33 -2 18 -11 29 -27 33 -12 3 -36 19 -51 36 l-29 31 30 -7 c17
-4 38 -18 48 -32z m-79 -33 c25 -28 15 -36 -28 -21 -42 14 -52 26 -36 45 14
17 34 9 64 -24z m1932 -7 c-3 -8 -10 -14 -16 -14 -14 0 -13 33 3 49 10 10 13
9 15 -4 2 -9 1 -23 -2 -31z m-1613 -36 c13 -42 13 -44 -18 -93 -18 -27 -39
-62 -49 -77 -30 -50 -66 -25 -66 46 0 25 9 45 30 69 17 19 33 49 36 66 5 24
12 31 29 31 18 0 26 -9 38 -42z m1755 -19 c48 -56 49 -63 11 -55 -49 9 -74 37
-60 65 15 27 17 27 49 -10z m-1968 -97 c0 -32 -1 -33 -37 -30 l-38 3 0 67 0
67 38 -36 c28 -28 37 -45 37 -71z m-130 95 c0 -1 4 -17 9 -35 12 -41 -3 -42
-24 -2 -19 36 -19 40 0 40 8 0 15 -1 15 -3z m1135 -12 c141 -29 261 -99 371
-217 60 -64 113 -166 128 -248 6 -30 3 -26 -24 24 -85 166 -220 278 -410 344
-61 21 -94 25 -180 26 -191 0 -367 -70 -497 -200 -58 -58 -81 -91 -122 -175
-28 -57 -51 -111 -51 -119 0 -8 -4 -21 -9 -29 -13 -20 -2 74 16 138 38 138
145 283 267 362 149 97 332 131 511 94z m-1191 -53 c14 -21 26 -46 26 -55 0
-9 14 -32 31 -52 27 -30 36 -35 63 -30 27 4 38 -2 89 -50 54 -51 74 -95 44
-95 -17 0 -58 29 -80 57 -10 13 -29 23 -42 23 -38 0 -135 114 -135 159 0 7 -9
29 -21 47 -28 47 -8 43 25 -4z m1921 30 c6 -4 28 -28 49 -54 21 -27 45 -48 53
-48 24 0 26 30 4 61 l-22 29 29 0 c18 0 38 -10 56 -29 15 -16 43 -32 62 -36
19 -3 34 -9 34 -13 -2 -20 -49 -144 -64 -167 -10 -15 -31 -31 -47 -37 -30 -10
-33 -18 -44 -99 -3 -25 -14 -55 -25 -67 -10 -11 -26 -36 -34 -56 -15 -36 -47
-49 -61 -25 -4 5 -18 15 -32 20 l-25 9 36 37 c19 20 38 50 42 65 6 28 7 29 25
12 10 -9 25 -14 34 -10 26 10 13 49 -22 71 -24 15 -32 26 -30 44 3 33 31 50
57 33 27 -17 66 -15 95 4 32 21 22 47 -15 39 -16 -3 -31 -2 -34 3 -9 14 16 31
60 40 29 6 39 13 39 27 0 22 -10 23 -83 7 -24 -5 -54 -20 -67 -32 -14 -13 -27
-21 -30 -18 -3 3 -8 36 -10 73 -5 72 -21 102 -50 92 -13 -6 -15 -16 -9 -59 4
-29 10 -59 14 -67 9 -18 -10 -83 -28 -94 -9 -6 -13 -24 -11 -50 2 -55 1 -67
-10 -67 -4 0 -13 26 -20 57 -10 53 -10 59 8 73 25 20 44 58 37 76 -8 22 -40
17 -51 -8 -6 -13 -14 -22 -20 -21 -17 4 -17 41 1 68 16 24 16 27 1 42 -15 15
-18 15 -35 -1 -15 -13 -21 -14 -24 -4 -9 26 8 60 37 73 33 15 114 19 130 7z
m-1985 -83 c0 -6 -4 -7 -10 -4 -5 3 -10 11 -10 16 0 6 5 7 10 4 6 -3 10 -11
10 -16z m1102 -88 c4 -36 9 -70 12 -78 3 -7 3 -13 1 -13 -10 0 -45 81 -51 120
-6 38 -5 42 12 38 15 -3 20 -16 26 -67z m114 48 c24 -14 34 -28 34 -45 0 -24
-1 -24 -55 17 -30 23 -55 43 -55 45 0 12 47 1 76 -17z m-202 -1 c-20 -36 -78
-118 -84 -118 -4 0 -12 12 -19 27 -11 24 -9 29 20 59 28 29 41 36 82 43 5 0 5
-5 1 -11z m89 -166 c24 -37 62 -101 83 -142 35 -69 39 -82 38 -155 0 -96 -18
-141 -94 -235 -87 -109 -105 -151 -104 -250 0 -98 12 -127 94 -234 65 -85 72
-104 71 -203 -1 -88 -13 -127 -76 -253 -40 -79 -56 -166 -44 -238 12 -75 9
-80 -17 -27 -20 42 -24 65 -24 144 0 91 1 97 45 190 89 186 84 233 -38 356
-103 104 -122 144 -119 253 2 90 16 134 61 190 93 118 137 241 128 355 -7 80
-36 138 -107 216 -28 29 -50 57 -50 62 0 4 19 35 42 68 l42 61 12 -45 c6 -25
32 -76 57 -113z m89 116 c51 -36 66 -54 97 -118 76 -152 86 -187 86 -290 0
-124 -23 -173 -135 -290 -80 -82 -119 -144 -120 -185 0 -29 54 -138 95 -192
21 -28 46 -79 61 -129 26 -83 26 -84 10 -156 -17 -75 -44 -138 -96 -221 -43
-69 -71 -160 -78 -251 -4 -66 -7 -76 -15 -55 -6 13 -10 65 -11 114 -1 90 0 90
57 208 63 130 80 204 67 298 -9 68 -15 78 -90 177 -115 152 -110 246 24 426
83 112 106 168 106 263 0 64 -34 165 -90 270 -11 21 -22 51 -24 68 -12 78 -14
105 -9 105 2 0 32 -19 65 -42z m1331 13 c19 -19 19 -19 -28 -23 -47 -3 -65 8
-65 43 0 18 70 3 93 -20z m-2502 -7 c7 -9 8 -14 1 -14 -6 0 -16 -2 -24 -5 -19
-7 -40 9 -33 27 7 18 38 13 56 -8z m2289 -26 c0 -27 -29 -22 -36 6 -9 35 5 54
23 31 7 -11 13 -27 13 -37z m-880 12 c0 -4 -11 -15 -25 -24 -22 -15 -25 -15
-34 1 -6 11 -6 24 0 35 8 15 13 16 34 6 14 -6 25 -14 25 -18z m-599 -10 c-13
-11 -33 -20 -45 -20 -17 1 -14 4 14 20 45 25 61 25 31 0z m-801 -28 c0 -18
-27 -42 -62 -57 l-38 -15 0 34 c0 34 1 35 48 39 26 2 48 4 50 5 1 1 2 -2 2 -6z
m60 -22 c8 -14 8 -26 0 -40 -13 -23 -19 -24 -43 -6 -18 14 -18 16 -2 40 21 31
31 33 45 6z m1449 -41 c-48 -36 -59 -49 -59 -74 0 -21 -5 -25 -30 -25 -33 0
-34 1 -17 47 8 22 26 40 57 56 52 28 88 25 49 -4z m759 22 c10 -6 6 -15 -18
-35 -17 -14 -35 -26 -40 -26 -19 0 -20 21 -3 45 19 25 39 31 61 16z m-1403
-11 c3 -6 -4 -10 -18 -10 -14 0 -43 -7 -66 -15 -49 -17 -53 -12 -8 15 34 21
82 26 92 10z m-704 -53 c15 -7 47 -30 72 -53 l45 -40 -46 -14 c-35 -10 -60
-11 -106 -3 -38 6 -71 7 -87 1 -21 -7 -34 -4 -60 11 -19 12 -43 21 -54 21 -18
1 -18 2 -3 10 11 7 32 5 67 -6 60 -20 74 -13 98 48 16 41 30 45 74 25z m2157
-15 c3 -20 -1 -22 -42 -22 -25 0 -46 2 -46 5 0 9 65 45 75 42 6 -2 11 -13 13
-25z m-2322 2 c18 -14 18 -15 -6 -8 -14 3 -32 10 -40 15 -12 7 -11 8 6 9 11 0
29 -7 40 -16z m1618 -31 c30 -43 27 -52 -8 -29 -14 9 -34 16 -46 16 -24 0 -26
13 -4 34 23 23 30 20 58 -21z m-718 -28 c-1 -30 -2 -55 -2 -55 -1 0 -9 11 -18
25 -16 24 -16 27 1 55 9 17 18 30 18 30 1 0 1 -25 1 -55z m1284 20 c0 -7 22
-17 53 -22 l52 -10 -47 -2 c-45 -1 -61 -12 -38 -26 29 -18 -7 -75 -48 -75 -14
0 -32 -10 -44 -25 -11 -14 -26 -25 -34 -25 -18 0 -18 -2 11 64 14 31 25 62 25
68 0 24 41 77 56 71 7 -3 14 -11 14 -18z m-2422 -21 c12 -3 18 -64 5 -64 -19
0 -90 42 -100 60 -12 19 -11 19 35 14 26 -3 53 -7 60 -10z m832 -19 c19 -14
45 -25 59 -25 36 0 72 -21 82 -47 7 -20 3 -25 -35 -42 -24 -10 -54 -33 -67
-50 -28 -38 -35 -39 -43 -6 -4 14 -23 44 -43 66 l-36 40 21 45 c12 24 23 44
25 44 2 0 18 -11 37 -25z m1730 -60 c0 -27 -10 -26 -55 9 -19 15 -18 15 18 16
33 0 37 -3 37 -25z m-2360 -21 c0 -17 -30 -46 -44 -41 -13 4 -20 42 -12 63 4
11 10 12 31 2 14 -6 25 -17 25 -24z m1665 -29 c22 -14 48 -25 58 -25 10 0 20
-7 24 -15 10 -28 -5 -28 -42 0 -19 15 -38 25 -41 22 -3 -3 -30 4 -59 15 -45
17 -60 18 -102 10 -26 -6 -52 -7 -56 -3 -14 14 21 33 75 40 55 8 60 6 143 -44z
m-1485 16 c42 -12 4 -24 -53 -17 -51 6 -53 5 -99 -38 -27 -24 -48 -49 -48 -55
0 -24 23 -20 57 9 31 28 40 31 72 25 20 -4 37 -8 39 -9 9 -10 -14 -34 -51 -54
-41 -22 -44 -22 -90 -6 -42 14 -47 19 -47 45 0 16 4 29 9 29 6 0 31 18 56 40
39 34 53 40 88 39 23 -1 53 -4 67 -8z m2126 -32 c7 -12 -15 -31 -31 -26 -5 2
-11 11 -13 20 -4 19 32 24 44 6z m-2071 -76 c-11 -25 -13 -51 -9 -85 7 -54 14
-50 -88 -52 -45 -1 -61 2 -50 8 26 14 26 15 8 35 -17 19 -17 20 23 31 30 8 45
19 57 43 18 35 42 56 62 57 9 0 9 -9 -3 -37z m130 -100 c6 -31 5 -33 -22 -33
-27 0 -28 2 -31 53 -1 28 1 68 4 87 l7 35 17 -55 c10 -30 21 -70 25 -87z
m1873 111 c16 -11 34 -14 58 -10 45 9 43 -4 -4 -30 -26 -15 -48 -20 -74 -16
-36 4 -38 3 -57 -39 -39 -91 -129 -144 -167 -99 -11 12 -36 40 -58 62 -34 35
-38 44 -33 75 4 19 8 37 10 39 2 2 23 -2 48 -9 44 -13 44 -13 51 -67 6 -57 18
-110 23 -110 2 0 11 3 19 6 14 5 16 18 10 81 l-7 75 32 -7 c27 -6 35 -2 63 29
35 40 52 44 86 20z m-1704 -82 c-5 -15 -18 -28 -28 -30 -16 -4 -17 1 -11 50
10 71 16 78 34 40 11 -24 12 -40 5 -60z m2027 61 c-5 -10 -23 -26 -39 -35 -25
-15 -32 -16 -41 -4 -24 29 2 51 67 55 19 1 21 -2 13 -16z m-1543 -23 c3 -29
-28 -63 -67 -75 -23 -7 -24 -6 -18 31 11 66 78 100 85 44z m-206 -67 c3 -37 1
-61 -6 -66 -15 -10 -87 2 -106 18 -8 7 -22 10 -30 7 -20 -7 48 51 90 77 19 11
38 21 41 21 4 0 9 -26 11 -57z m899 -16 l62 -62 -13 -55 c-7 -30 -15 -85 -17
-122 -4 -62 -2 -69 21 -93 27 -27 62 -32 90 -12 26 19 31 86 11 160 -10 36
-16 70 -14 76 2 6 19 -3 38 -21 31 -29 33 -34 27 -76 -6 -47 11 -82 41 -82 7
0 23 -16 34 -35 22 -36 46 -45 55 -21 7 18 -10 52 -44 88 -22 24 -24 31 -14
53 10 22 18 25 66 25 46 0 56 -3 70 -25 14 -21 14 -25 2 -25 -8 0 -18 5 -21
10 -3 6 -11 10 -17 10 -11 0 -6 -78 7 -111 4 -12 -4 -24 -25 -39 -31 -22 -34
-22 -60 -6 -36 21 -74 21 -91 -1 -16 -19 -86 -52 -112 -53 -21 0 -113 60 -122
80 -4 8 -9 62 -11 119 -5 123 -17 153 -90 227 -28 29 -50 54 -49 56 2 2 28 1
59 0 53 -4 58 -7 117 -65z m-1694 32 l28 -11 -38 -20 c-43 -22 -67 -18 -67 10
0 34 25 41 77 21z m2303 1 c0 -5 -4 -10 -10 -10 -5 0 -10 5 -10 10 0 6 5 10
10 10 6 0 10 -4 10 -10z m-39 -52 c45 -34 36 -50 -15 -27 -20 10 -30 8 -59
-10 -52 -32 -59 -26 -29 24 30 51 48 53 103 13z m-744 -79 c38 -62 44 -92 14
-65 -13 11 -31 16 -53 14 -31 -3 -33 -1 -39 33 -3 20 -15 49 -27 64 -30 38
-19 47 31 26 32 -14 50 -31 74 -72z m-527 44 c-1 -12 -49 -68 -53 -63 -3 3 -7
15 -11 27 -5 17 -1 23 21 31 35 13 43 14 43 5z m-316 -45 c6 -4 22 -8 35 -8
23 0 22 -2 -16 -37 -38 -36 -41 -42 -47 -111 -5 -47 -12 -75 -21 -78 -16 -7
-27 -32 -19 -45 7 -13 63 21 69 42 3 9 10 42 15 73 8 49 15 61 62 106 51 48
53 50 63 29 7 -17 5 -25 -15 -40 -73 -57 -73 -56 -67 -111 6 -45 3 -54 -20
-82 -14 -17 -34 -50 -44 -73 -19 -45 -67 -78 -100 -70 -12 3 -31 -5 -49 -19
-48 -41 -43 -9 6 41 l46 48 -7 62 c-6 57 -4 65 16 84 49 45 59 72 59 156 1 65
3 76 12 60 6 -11 16 -23 22 -27z m-665 23 c7 -5 10 -14 7 -20 -11 -17 -23 -13
-29 9 -6 22 0 25 22 11z m-74 -61 c-19 -37 -11 -57 13 -33 16 16 17 15 20 -15
2 -17 -1 -47 -7 -67 -10 -36 3 -50 14 -15 12 39 28 21 23 -25 -6 -50 -3 -52
31 -28 l24 16 -6 -39 c-4 -21 -10 -50 -13 -64 -6 -24 -6 -24 20 5 27 32 33 24
16 -21 -13 -34 -8 -40 15 -18 17 17 18 17 32 -2 8 -10 11 -28 8 -39 -20 -73
-20 -72 2 -52 20 17 21 17 27 -10 6 -20 9 -24 16 -13 7 12 12 11 30 -5 18 -16
21 -27 15 -60 -5 -32 -4 -38 6 -27 24 23 32 13 25 -34 -5 -40 -4 -45 9 -34 8
6 17 21 21 32 10 31 24 2 24 -50 0 -26 4 -41 10 -37 6 3 10 19 10 35 0 16 5
32 10 35 14 8 32 -43 25 -69 -6 -19 -4 -19 14 4 19 24 20 24 40 6 13 -12 21
-31 21 -53 0 -18 5 -33 10 -33 6 0 10 9 10 19 0 51 39 10 41 -42 l0 -22 11 23
c15 29 36 28 44 -3 7 -27 20 -33 27 -12 8 21 61 -15 65 -43 5 -32 22 -51 22
-25 0 17 2 17 14 5 8 -8 18 -27 21 -41 6 -24 4 -25 -24 -21 -19 2 -31 10 -31
19 0 9 -6 13 -14 10 -8 -3 -20 1 -26 9 -7 8 -17 14 -22 14 -5 0 -24 11 -42 25
-18 14 -40 25 -49 25 -31 0 -48 13 -67 50 -15 29 -24 37 -39 33 -10 -2 -37 5
-60 17 -44 22 -150 126 -151 148 0 7 -11 17 -23 21 -13 5 -31 25 -40 44 -9 19
-23 37 -31 40 -8 3 -16 18 -18 34 -2 15 -6 27 -10 26 -21 -7 -98 107 -98 144
0 11 -3 23 -7 27 -5 4 -8 20 -8 34 0 16 -5 26 -12 25 -8 -2 -13 8 -13 25 0 15
-7 40 -15 56 -14 26 -13 30 13 66 20 29 29 35 35 24 4 -8 1 -27 -8 -44z m205
35 c0 -4 -7 -19 -15 -36 -16 -30 -49 -49 -86 -49 -27 0 -24 13 13 54 22 25 40
36 60 36 15 0 28 -2 28 -5z m390 -17 c0 -28 -20 -101 -26 -96 -7 8 -22 102
-18 110 3 5 14 8 25 8 13 0 19 -7 19 -22z m1738 -11 c4 -32 -7 -34 -39 -7 -21
17 -22 21 -9 30 24 16 45 7 48 -23z m-2060 -24 c-2 -30 -7 -39 -25 -41 -22 -3
-22 -3 -5 37 21 51 34 52 30 4z m1138 -12 c-10 -16 -31 -14 -46 4 -10 12 -10
18 0 31 12 13 15 13 33 -4 11 -11 16 -25 13 -31z m-988 24 c8 -7 -10 -26 -39
-40 -29 -15 -29 -15 -29 13 0 16 3 32 7 36 7 6 53 0 61 -9z m2119 -89 c4 -31
2 -46 -6 -46 -6 0 -11 4 -11 10 0 5 -14 25 -30 44 -27 30 -29 37 -20 62 l11
28 26 -26 c17 -17 27 -40 30 -72z m-673 27 c27 -79 17 -114 -26 -91 -19 9 -24
57 -12 117 8 39 18 33 38 -26z m-1339 -31 c17 -59 17 -64 2 -80 -22 -21 -50
-6 -56 29 -4 30 20 132 29 122 4 -4 15 -36 25 -71z m1755 33 c14 -17 5 -35
-17 -35 -15 0 -42 27 -43 43 0 13 47 7 60 -8z m-2120 -60 l-34 -36 -18 23
c-16 21 -16 24 -1 36 9 6 33 12 52 12 l35 0 -34 -35z m270 -2 c0 -20 -3 -24
-11 -16 -7 7 -9 19 -6 27 10 24 17 19 17 -11z m862 10 c10 -9 35 -19 56 -22
33 -6 37 -9 37 -36 0 -28 -3 -30 -45 -37 -25 -3 -60 -2 -78 4 -36 11 -37 18
-12 83 11 29 17 31 42 8z m951 -38 c33 -6 37 -10 31 -29 -11 -36 -24 -47 -44
-36 -29 16 -80 70 -80 86 0 13 4 13 28 0 15 -8 45 -17 65 -21z m-1318 -2 c-9
-37 -13 -40 -32 -21 -20 21 -10 48 18 48 18 0 20 -4 14 -27z m668 18 c14 -6
28 -20 32 -33 22 -78 39 -107 65 -118 15 -6 39 -23 52 -37 20 -21 23 -35 23
-104 1 -59 5 -83 17 -95 17 -18 38 -11 38 12 0 29 46 11 65 -26 19 -36 7 -46
-22 -18 -20 19 -27 20 -43 10 -36 -22 -100 -8 -100 23 0 30 -38 55 -82 55 -30
0 -56 9 -84 28 -23 15 -49 32 -58 37 -23 14 -38 71 -22 84 20 17 78 -19 89
-54 12 -39 24 -53 59 -71 25 -13 29 -13 34 1 4 9 -2 26 -15 39 -21 23 -29 66
-11 66 5 0 19 -19 31 -42 26 -53 48 -78 66 -78 27 0 25 30 -5 64 -17 19 -33
48 -37 65 -9 41 -49 71 -94 71 -20 1 -46 9 -58 19 -21 18 -22 21 -8 48 8 15
15 36 15 46 0 19 17 22 53 8z m-1355 -44 c3 -20 -3 -29 -27 -41 -42 -22 -46
-20 -22 10 12 15 21 35 21 46 0 29 24 16 28 -15z m142 -49 c0 -29 -37 -22 -44
8 -8 32 -28 27 -37 -10 -8 -29 -46 -76 -61 -76 -18 0 -6 27 16 38 14 6 29 26
36 46 8 27 17 36 38 38 29 4 52 -15 52 -44z m177 -35 c-4 -3 -7 0 -7 7 0 7 3
10 7 7 3 -4 3 -10 0 -14z m1618 -2 c-3 -6 -16 -11 -28 -11 -21 1 -21 1 3 15
27 14 36 13 25 -4z m-2161 -13 c14 -20 14 -23 0 -31 -19 -11 -71 -2 -92 16
-13 10 -9 14 24 24 53 16 51 16 68 -9z m2054 -23 c17 -14 43 -25 58 -25 22 0
25 -3 16 -12 -9 -9 -20 -8 -47 5 -40 19 -90 22 -100 7 -3 -5 -23 -10 -43 -10
-32 0 -34 2 -22 14 21 20 72 46 92 46 9 0 30 -11 46 -25z m-1742 -32 c-3 -26
-13 -57 -22 -71 -15 -23 -16 -23 -35 -6 -26 23 -24 35 11 69 17 16 30 35 30
42 0 7 5 13 11 13 8 0 10 -15 5 -47z m159 -18 l0 -60 -38 0 c-32 -1 -44 -7
-67 -34 -19 -25 -29 -30 -32 -20 -8 21 17 63 55 92 21 16 37 38 41 57 4 23 11
31 23 28 15 -3 18 -14 18 -63z m-103 23 c-9 -9 -12 -7 -12 12 0 19 3 21 12 12
9 -9 9 -15 0 -24z m492 16 c24 -23 30 -63 17 -101 -11 -29 -10 -41 9 -87 21
-50 21 -54 6 -84 -9 -17 -16 -53 -16 -80 0 -57 -29 -106 -50 -85 -10 9 -7 22
10 56 l22 44 -22 43 c-21 42 -23 73 -5 126 4 15 -1 30 -19 51 -32 38 -33 79
-4 110 25 27 31 28 52 7z m493 -44 c9 -35 8 -40 -7 -40 -9 0 -24 16 -33 35
-21 45 -21 45 6 45 18 0 25 -8 34 -40z m707 -26 c12 -5 13 -9 4 -24 -14 -22
-28 -17 -28 11 0 21 1 22 24 13z m-219 -34 c0 -8 -8 -16 -17 -18 -13 -2 -18 3
-18 18 0 15 5 20 18 18 9 -2 17 -10 17 -18z m141 12 c11 -7 29 -52 21 -52 -2
0 -24 7 -49 16 -61 20 -71 44 -20 44 20 0 42 -4 48 -8z m-1246 -49 c24 -22 27
-30 18 -49 -8 -17 -6 -35 6 -71 17 -48 17 -48 -8 -68 -14 -11 -29 -31 -35 -45
l-10 -25 0 29 c-1 16 4 44 11 63 11 30 10 35 -14 60 -34 36 -46 94 -23 116 21
22 22 22 55 -10z m281 -20 c42 -30 99 -98 99 -118 0 -3 -15 -5 -33 -5 -38 0
-60 20 -101 91 -24 43 -32 69 -21 69 3 0 28 -16 56 -37z m937 -12 c27 -14 28
-29 5 -47 -25 -19 -25 -19 -65 30 l-37 43 37 -7 c20 -3 47 -12 60 -19z m-1514
-15 c-9 -28 -11 -29 -29 -22 -39 15 -25 59 16 49 15 -4 18 -11 13 -27z m160
10 c3 -13 9 -31 12 -40 10 -26 -22 -19 -41 10 -13 20 -14 28 -4 40 17 20 26
17 33 -10z m1670 -34 c-18 -4 -74 17 -74 27 0 4 5 12 11 18 9 9 20 5 45 -15
26 -20 30 -28 18 -30z m-860 -44 c5 -41 3 -49 -14 -58 -18 -10 -20 -7 -20 18
0 16 -3 51 -6 78 -6 49 -6 49 14 29 11 -12 22 -40 26 -67z m-912 27 c-2 -19
-8 -35 -13 -35 -10 0 -11 16 -3 48 10 35 20 26 16 -13z m1031 7 c9 -8 17 -26
17 -39 0 -18 -5 -23 -25 -23 -30 0 -31 -4 -5 -37 24 -31 28 -72 6 -53 -30 24
-55 116 -47 172 1 10 32 -2 54 -20z m-963 -95 l0 -48 -25 18 c-25 18 -26 34
-8 113 l6 25 13 -30 c7 -16 13 -52 14 -78z m1099 48 c13 -22 28 -35 41 -35 14
0 20 -7 20 -24 0 -36 -22 -37 -70 -5 -51 34 -60 45 -60 77 0 37 44 29 69 -13z
m-699 -18 c0 -8 -9 -22 -20 -32 -22 -20 -27 -6 -8 25 15 23 28 26 28 7z m-687
-20 c13 -21 12 -25 -23 -65 -37 -41 -38 -42 -44 -18 -3 13 -4 30 -1 38 20 57
26 68 39 68 7 0 20 -10 29 -23z m1534 -14 c-8 -9 -20 -12 -26 -9 -17 11 -13
22 12 33 27 13 36 -2 14 -24z m-1159 14 c6 -7 7 -26 3 -47 -7 -34 -8 -34 -19
-13 -14 25 -16 73 -3 73 5 0 13 -6 19 -13z m347 -67 c-4 -17 -11 -28 -16 -24
-10 6 -12 45 -3 69 6 16 8 16 16 1 5 -9 6 -30 3 -46z m614 9 c33 -32 40 -59
17 -59 -8 0 -21 -3 -29 -6 -10 -4 -17 7 -26 40 -6 25 -11 47 -11 50 0 14 21 3
49 -25z m-489 -5 c0 -8 -4 -12 -10 -9 -5 3 -10 10 -10 16 0 5 5 9 10 9 6 0 10
-7 10 -16z m-182 -115 c-18 -11 -38 1 -38 22 0 11 7 36 17 57 l16 37 8 -55 c5
-36 4 -57 -3 -61z m-172 66 c-7 -18 -26 -20 -26 -2 0 18 24 41 28 27 2 -6 1
-17 -2 -25z m624 25 c0 -18 -30 -70 -40 -70 -13 0 -13 22 0 54 9 25 40 37 40
16z m90 -47 c0 -6 -13 -16 -30 -22 -35 -12 -36 -7 -14 45 l16 38 14 -24 c7
-14 13 -30 14 -37z m-390 -20 c0 -14 -28 -17 -47 -5 -6 4 -9 19 -6 35 l6 28
23 -22 c13 -12 24 -28 24 -36z m840 -21 c0 -27 -6 -56 -14 -67 -12 -16 -14
-13 -20 34 -5 35 -3 58 5 67 21 25 29 15 29 -34z m-1161 -30 c9 -17 20 -32 25
-32 7 0 6 7 -10 46 -9 20 60 2 93 -25 23 -18 33 -34 33 -54 l0 -27 -39 20
c-26 13 -41 16 -43 8 -3 -8 -14 -7 -40 2 -26 10 -37 20 -41 39 -2 14 -8 34
-12 45 -14 33 17 13 34 -22z m236 -2 c3 -5 15 -10 26 -10 22 0 24 -14 8 -58
-9 -28 -13 -30 -31 -21 -14 8 -23 8 -31 0 -21 -21 -47 -13 -47 15 0 14 -5 35
-11 46 -10 18 -9 20 5 15 9 -4 16 -1 16 5 0 7 5 6 15 -2 8 -7 15 -21 15 -31 0
-11 5 -19 10 -19 15 0 12 22 -6 48 -14 21 -14 22 5 22 11 0 23 -4 26 -10z
m-296 -69 c11 -7 9 -14 -12 -35 -14 -14 -33 -26 -41 -26 -14 0 -14 4 1 35 17
36 28 41 52 26z m867 -73 c20 -39 13 -45 -28 -21 -38 22 -48 49 -21 55 24 6
31 2 49 -34z m-168 -14 c-4 -20 -55 -61 -64 -52 -3 4 -3 20 1 37 6 26 11 31
37 31 22 0 29 -4 26 -16z"/>
<path d="M1506 3225 c-48 -17 -71 -38 -63 -59 4 -11 15 -13 41 -9 27 4 41 0
64 -18 l30 -24 -27 -48 c-24 -44 -25 -49 -11 -74 22 -39 61 -51 94 -29 31 20
34 58 9 111 -9 19 -15 36 -12 38 2 2 21 13 42 25 30 17 42 19 64 11 20 -7 28
-6 35 3 16 25 7 36 -51 62 -67 30 -150 34 -215 11z m183 -31 c12 -10 -14 -35
-48 -45 -35 -10 -42 -9 -70 10 -38 28 -39 38 -3 44 26 4 113 -2 121 -9z m-59
-189 c-17 -20 -64 -16 -68 6 -2 9 7 33 19 54 l23 38 20 -41 c16 -34 17 -43 6
-57z"/>
<path d="M575 2720 c-3 -5 1 -10 9 -10 8 0 18 5 21 10 3 6 -1 10 -9 10 -8 0
-18 -4 -21 -10z"/>
</g>
</svg>
