<?xml version="1.0" standalone="no"?>
<!DOCTYPE svg PUBLIC "-//W3C//DTD SVG 20010904//EN"
 "http://www.w3.org/TR/2001/REC-SVG-20010904/DTD/svg10.dtd">
<svg version="1.0" xmlns="http://www.w3.org/2000/svg"
 width="300.000000pt" height="572.000000pt" viewBox="0 0 300.000000 572.000000"
 preserveAspectRatio="xMidYMid meet">
<metadata>
Created by potrace 1.10, written by Peter Selinger 2001-2011
</metadata>
<g transform="translate(0.000000,572.000000) scale(0.100000,-0.100000)"
fill="#000000" stroke="none">
<path d="M84 5008 c5 -552 9 -714 19 -720 6 -4 119 -7 250 -6 130 1 240 -2
245 -6 12 -13 6 -545 -7 -611 -47 -233 -157 -450 -305 -604 -55 -56 -145 -134
-194 -166 -1 -1 58 -62 131 -136 172 -172 261 -309 323 -496 48 -145 54 -205
54 -504 l0 -279 -265 -2 -266 -3 0 -700 c1 -385 1 -708 1 -717 0 -17 75 -18
1430 -18 l1430 0 0 98 c0 272 0 1253 0 1295 l0 47 -275 0 -275 0 0 258 c0 287
10 374 61 520 79 225 195 387 407 571 34 30 62 57 62 61 0 4 -30 30 -67 58
-86 63 -207 189 -262 270 -91 135 -168 334 -191 492 -5 36 -10 179 -10 318 l0
252 275 0 275 0 0 720 0 720 -1426 0 -1427 0 7 -712z m2734 -5 l-3 -618 -257
-1 c-141 -1 -264 -4 -273 -8 -16 -6 -16 -32 -10 -324 7 -354 17 -438 72 -596
75 -218 194 -393 348 -515 l73 -58 -49 -38 c-159 -121 -312 -343 -383 -557
-55 -164 -58 -190 -63 -560 l-5 -348 276 0 276 0 0 -615 0 -615 -1320 0 -1320
0 0 615 0 615 260 0 260 0 0 354 c0 279 -3 370 -15 428 -50 240 -160 444 -335
622 l-98 98 70 66 c196 185 337 473 367 750 6 56 11 235 11 397 l0 295 -255 0
-255 0 0 615 0 615 1315 0 1315 0 -2 -617z"/>
<path d="M270 5343 c0 -109 -3 -350 -7 -535 l-6 -338 259 -2 259 -3 -3 -445
c-2 -245 -6 -458 -8 -475 -22 -126 -129 -365 -216 -480 -58 -77 -129 -153
-168 -178 l-24 -17 67 -67 c154 -156 241 -302 306 -509 l31 -98 0 -448 0 -448
-247 -2 -248 -3 0 -535 0 -535 1238 -3 1237 -3 0 103 c0 57 1 297 2 533 l2
430 -270 5 -269 5 -3 340 c-3 368 3 437 53 609 66 227 214 453 389 593 l38 31
-28 24 c-214 177 -353 396 -423 665 -19 75 -21 109 -21 371 0 159 3 344 7 410
l6 122 257 0 257 0 6 63 c6 69 -1 985 -8 1005 -3 9 -259 12 -1235 12 l-1230 0
0 -197z m1274 29 c31 -62 56 -115 56 -118 0 -2 -16 -4 -35 -4 l-35 0 0 -92 c0
-108 -20 -239 -48 -318 -27 -74 -36 -173 -22 -235 7 -31 34 -85 72 -143 101
-153 123 -292 73 -449 -31 -98 -31 -103 3 -103 22 0 34 12 68 63 23 34 83 121
133 194 l91 132 -82 67 c-46 37 -82 70 -81 75 2 4 40 61 85 126 46 65 103 148
128 185 25 37 47 67 50 68 3 0 41 -29 85 -64 60 -49 83 -62 91 -53 6 7 36 48
67 93 l56 81 -85 67 -85 67 34 47 c75 105 187 271 187 278 0 4 -7 15 -16 25
-14 15 -10 20 53 54 37 21 82 46 99 56 l31 19 -20 -118 c-11 -64 -22 -119 -24
-121 -1 -2 -11 3 -21 12 -18 16 -22 11 -95 -95 -89 -129 -91 -114 25 -200 l68
-50 -33 -47 c-19 -25 -80 -112 -136 -194 l-102 -147 -32 22 c-18 13 -56 42
-86 66 -29 24 -56 40 -60 35 -17 -19 -121 -176 -119 -178 10 -7 164 -128 166
-130 4 -4 -140 -214 -260 -382 -55 -78 -64 -103 -35 -103 7 0 47 -20 90 -45
412 -242 592 -854 406 -1382 -88 -249 -234 -427 -442 -538 l-57 -31 146 -215
c81 -118 148 -221 151 -229 2 -9 -23 -36 -68 -70 -39 -30 -78 -60 -86 -67 -13
-10 -7 -23 43 -95 31 -46 61 -87 65 -92 4 -5 29 9 56 31 26 22 64 52 84 67
l37 27 132 -191 c72 -104 130 -194 128 -199 -2 -4 -38 -36 -81 -71 -43 -34
-77 -65 -75 -69 2 -3 36 -54 77 -113 71 -102 76 -107 93 -91 10 9 20 14 22 12
2 -2 11 -49 20 -104 9 -55 19 -109 23 -119 4 -16 -6 -13 -63 19 -137 75 -137
75 -120 94 9 10 16 21 16 25 0 6 -49 79 -202 298 l-19 27 85 67 86 67 -43 61
c-24 34 -53 75 -66 93 l-22 32 -82 -64 c-45 -36 -84 -65 -87 -65 -3 0 -19 22
-36 48 -18 26 -77 112 -132 192 l-100 146 84 64 c46 36 84 69 84 74 0 5 -10
23 -23 40 -13 17 -63 90 -112 161 -111 164 -117 170 -143 156 -20 -11 -20 -11
-1 -72 26 -83 25 -206 -1 -293 -12 -37 -44 -101 -74 -145 -29 -44 -59 -100
-66 -126 -18 -63 -8 -206 18 -266 27 -62 42 -166 42 -293 l0 -106 35 0 c19 0
35 -3 35 -7 0 -5 -27 -62 -58 -128 l-58 -120 -62 122 c-34 67 -62 124 -62 127
0 3 18 6 39 6 l40 0 6 53 c8 67 -9 208 -36 283 -52 151 -65 301 -34 394 9 27
37 72 64 103 77 88 96 136 95 242 0 71 -6 103 -26 155 l-25 65 -64 7 c-35 4
-69 6 -75 4 -15 -6 -256 -354 -252 -365 2 -5 38 -37 81 -71 48 -38 77 -67 73
-75 -6 -16 -232 -344 -250 -363 -10 -10 -27 -1 -89 48 -42 33 -81 60 -86 60
-5 0 -36 -40 -70 -89 l-61 -89 80 -63 c44 -34 80 -67 80 -73 -1 -6 -49 -81
-109 -166 -108 -155 -108 -155 -89 -176 21 -24 33 -15 -125 -103 -57 -33 -58
-33 -53 -9 3 12 13 67 22 120 17 93 18 96 37 83 19 -13 24 -8 83 76 109 154
108 127 10 204 l-86 67 67 96 c36 53 97 141 135 195 l69 98 85 -67 c47 -36 87
-64 88 -63 27 33 116 169 116 177 0 6 -36 39 -80 73 -45 35 -79 68 -76 75 2 6
71 110 152 230 81 120 143 219 137 221 -5 2 -48 27 -94 55 -286 176 -469 546
-469 950 0 299 119 612 303 800 80 82 131 120 225 167 42 21 60 36 55 44 -4 7
-74 109 -156 227 -82 118 -151 219 -153 225 -3 6 31 39 76 74 44 34 80 67 80
72 0 8 -68 112 -116 177 -1 2 -36 -22 -76 -54 -40 -31 -78 -61 -85 -66 -11 -9
-103 114 -241 318 l-41 62 85 66 c57 45 82 71 77 79 -4 7 -39 59 -78 115 -66
97 -70 101 -91 87 -21 -14 -22 -12 -41 98 -10 62 -16 113 -13 115 4 1 48 -21
98 -50 91 -52 92 -52 73 -73 -19 -20 -19 -21 89 -175 60 -85 109 -160 110
-166 0 -6 -36 -39 -80 -73 -47 -38 -77 -68 -73 -75 12 -20 96 -141 111 -158
13 -16 21 -12 94 47 44 36 83 63 87 61 4 -3 24 -31 46 -63 22 -32 79 -114 128
-182 48 -68 87 -128 87 -132 0 -4 -34 -35 -75 -69 -41 -34 -75 -66 -75 -71 0
-6 59 -96 131 -200 124 -179 132 -189 163 -189 48 0 62 16 96 108 24 68 30 99
30 165 0 96 -23 154 -87 227 -66 74 -86 123 -89 220 -4 90 8 156 50 281 30 92
45 205 37 284 l-6 60 -37 3 c-21 2 -38 5 -38 7 0 17 116 233 122 227 4 -4 32
-58 62 -120z"/>
<path d="M1360 3764 c-199 -52 -389 -229 -487 -455 -94 -217 -115 -515 -53
-754 45 -173 167 -373 287 -470 129 -106 236 -145 393 -145 153 0 250 33 371
126 137 105 235 252 297 444 39 121 46 180 46 360 -1 157 -4 186 -28 275 -69
260 -237 485 -431 576 -124 58 -274 75 -395 43z m40 -162 c0 -17 -34 -53 -91
-97 -57 -43 -67 -44 -31 -2 9 10 11 17 4 17 -6 0 -23 -17 -37 -37 -27 -41 -33
-31 -12 20 17 40 37 56 101 84 58 24 66 26 66 15z m244 -30 c3 -5 37 -21 75
-36 46 -18 78 -38 91 -56 29 -41 25 -57 -6 -21 -14 17 -33 31 -42 31 -12 0
-10 -5 8 -25 27 -28 21 -30 -33 -12 -45 16 -93 60 -106 98 -9 26 0 41 13 21z
m-443 -119 c-6 -21 -24 -54 -41 -73 l-30 -35 15 39 c8 22 13 41 10 44 -5 5
-35 -60 -35 -77 0 -5 -5 -13 -11 -17 -8 -4 -9 4 -4 27 18 90 29 115 63 148
l37 35 3 -26 c2 -15 -1 -44 -7 -65z m150 8 l23 -18 -32 -17 c-34 -17 -87 -21
-96 -7 -10 16 23 33 51 27 25 -6 26 -5 11 7 -18 14 -14 27 8 27 6 0 22 -8 35
-19z m393 -42 c31 -11 58 -25 62 -31 4 -6 -1 -6 -14 1 -27 14 -45 14 -36 0 5
-9 -1 -10 -21 -5 -53 13 -96 35 -90 46 9 15 38 12 99 -11z m162 -66 c4 -23 3
-25 -6 -13 -9 12 -10 9 -5 -15 l6 -30 -17 24 c-9 13 -19 47 -21 75 l-5 51 21
-32 c11 -18 23 -45 27 -60z m-646 27 c12 -7 11 -12 -5 -30 -21 -23 -123 -75
-131 -67 -7 6 50 47 66 47 6 0 8 5 5 11 -5 6 -16 4 -33 -7 l-26 -17 23 29 c32
41 70 54 101 34z m-176 -26 c12 -31 6 -73 -20 -128 -14 -31 -27 -56 -29 -56
-1 0 1 19 6 41 6 23 7 44 5 47 -6 6 -9 -3 -27 -83 l-14 -60 -3 72 c-3 73 2 90
42 150 24 37 31 40 40 17z m758 -16 c17 -14 58 -77 58 -91 0 -4 -13 7 -29 25
-16 18 -33 30 -37 25 -4 -4 2 -17 13 -30 37 -40 36 -46 -2 -34 -26 8 -40 21
-55 52 -11 23 -20 47 -20 53 0 16 52 15 72 0z m75 -35 c-4 -3 -7 0 -7 7 0 7 3
10 7 7 3 -4 3 -10 0 -14z m-329 -31 c83 -21 132 -54 161 -110 20 -38 45 -120
55 -181 5 -29 4 -32 -9 -21 -8 7 -17 27 -21 46 -3 19 -10 34 -15 34 -15 0 3
-63 39 -135 61 -122 60 -155 -3 -155 -22 0 -45 -9 -65 -27 -31 -25 -31 -28
-25 -85 7 -59 7 -60 -15 -48 -12 6 -28 9 -36 6 -8 -3 -14 1 -14 9 0 22 -20 28
-39 11 -19 -17 -41 -21 -41 -7 0 15 -32 22 -46 10 -8 -6 -14 -21 -14 -34 0
-35 -13 -38 -26 -5 -15 35 -37 39 -57 10 -14 -20 -14 -20 -31 6 -17 24 -19 25
-36 9 -10 -9 -25 -15 -32 -12 -7 2 -23 0 -35 -4 -21 -8 -22 -5 -29 53 -8 70
-29 98 -73 98 -48 0 -56 21 -36 93 9 34 24 75 33 92 18 36 45 146 37 154 -9 8
-25 -20 -25 -44 0 -11 -5 -27 -11 -35 -8 -11 -9 0 -4 39 11 98 55 155 159 208
91 47 142 52 254 25z m400 -37 c12 -25 22 -60 21 -78 l-1 -32 -11 35 -11 35
-6 -35 -5 -35 -13 34 c-13 38 -16 121 -4 121 4 0 18 -20 30 -45z m-822 -1
c-11 -43 -35 -72 -82 -98 -24 -14 -44 -23 -44 -20 0 17 31 74 38 70 5 -3 18 1
28 9 10 8 14 15 9 15 -6 0 -16 -5 -23 -12 -9 -9 -12 -9 -12 1 0 24 22 53 35
47 8 -3 17 -1 20 4 4 6 13 10 22 10 11 0 14 -6 9 -26z m745 -55 c11 -6 29 -31
40 -56 24 -57 24 -67 0 -27 -11 18 -24 35 -29 38 -17 10 -23 -11 -7 -24 20
-16 19 -31 0 -24 -14 6 -65 82 -65 97 0 11 39 8 61 -4z m-936 -149 c1 -41 0
-54 -2 -27 -6 67 -20 58 -16 -10 l3 -58 -16 35 c-14 30 -15 44 -4 104 10 57
14 66 23 50 6 -10 11 -52 12 -94z m86 -9 c-30 -57 -51 -69 -31 -17 5 15 6 26
0 26 -4 0 -11 -8 -13 -17 -4 -17 -5 -16 -6 0 0 10 13 33 31 50 26 26 33 29 36
15 2 -9 -6 -35 -17 -57z m1004 -19 c3 -32 2 -68 -4 -82 -8 -22 -10 -18 -12 30
l-2 55 -6 -45 -7 -45 -13 57 c-12 47 -12 62 -1 89 12 28 15 30 26 15 7 -10 15
-43 19 -74z m-91 4 c10 -8 25 -41 32 -73 18 -78 16 -89 -5 -29 -9 28 -23 52
-31 54 -8 3 -11 -1 -8 -9 20 -52 15 -57 -11 -12 -35 60 -43 110 -13 94 9 -6
25 -17 36 -25z m-939 -207 c-9 -27 -18 -49 -20 -49 -2 0 -1 19 1 43 3 33 2 37
-5 17 -5 -14 -10 -38 -11 -55 -2 -21 -5 -14 -10 23 -10 64 1 106 32 132 l23
18 3 -39 c2 -22 -4 -62 -13 -90z m-75 45 c5 -21 9 -52 9 -69 -1 -25 -3 -22
-14 18 -7 27 -16 51 -19 55 -10 10 -6 -21 9 -72 8 -27 13 -51 11 -53 -10 -10
-46 112 -46 155 l0 46 21 -20 c11 -12 24 -39 29 -60z m1004 -5 c22 -26 26 -40
25 -87 l-1 -57 -11 43 c-13 57 -28 54 -21 -5 6 -47 6 -47 -12 -30 -14 13 -20
36 -22 92 -5 84 3 91 42 44z m122 -61 c-10 -59 -40 -124 -65 -137 -29 -16 -28
3 4 45 14 18 25 39 25 46 0 7 -9 2 -20 -12 -24 -30 -25 -22 -5 27 33 78 71 97
61 31z m-1028 -89 c15 -62 15 -126 2 -134 -6 -4 -10 12 -10 40 0 25 -4 44 -9
41 -5 -3 -7 -24 -4 -46 7 -53 -3 -51 -18 2 -8 33 -8 56 1 95 6 29 15 53 19 53
4 0 13 -23 19 -51z m-73 -53 c28 -69 28 -83 0 -43 -30 44 -46 44 -19 0 l17
-28 -32 31 c-23 22 -34 43 -38 74 l-6 44 33 -24 c18 -12 38 -37 45 -54z m974
-41 c0 -11 -8 -38 -19 -60 -20 -41 -20 -35 -5 39 3 14 1 28 -5 31 -6 4 -10 -6
-11 -22 0 -15 -4 -37 -9 -48 -13 -31 -12 72 2 120 l11 40 18 -40 c10 -22 18
-49 18 -60z m-405 -21 c11 -28 7 -42 -14 -47 -21 -5 -24 3 -14 41 7 26 19 29
28 6z m70 -10 c9 -25 7 -34 -8 -34 -19 0 -28 14 -20 34 8 20 20 20 28 0z m426
11 c0 -3 -6 -21 -14 -39 -9 -22 -30 -42 -61 -59 -34 -20 -44 -22 -34 -9 8 9
22 23 32 30 9 7 17 20 17 29 0 13 -3 13 -16 3 -13 -12 -14 -10 -3 13 6 14 19
28 28 30 24 7 51 8 51 2z m-670 -25 c0 -11 -4 -20 -10 -20 -5 0 -10 9 -10 20
0 11 5 20 10 20 6 0 10 -9 10 -20z m76 -5 c4 -14 4 -29 0 -32 -11 -12 -37 23
-30 40 9 25 23 21 30 -8z m-320 -109 l4 -41 -17 45 c-18 49 -32 39 -14 -10 13
-39 6 -38 -19 3 -23 37 -25 63 -9 104 l12 28 19 -44 c11 -25 22 -63 24 -85z
m192 66 c7 -32 12 -64 12 -72 0 -22 -35 16 -55 60 -15 32 -15 42 -5 55 23 27
36 16 48 -43z m360 46 c7 -7 12 -19 12 -29 0 -20 -34 -65 -59 -79 -17 -9 -17
-6 -3 55 16 64 27 76 50 53z m192 -85 c0 -34 -27 -90 -48 -98 -7 -3 -5 10 8
35 22 44 24 50 11 50 -5 0 -14 -14 -22 -32 -7 -17 -15 -26 -17 -19 -2 6 8 37
23 67 29 60 45 59 45 -3z m-859 15 c8 -7 23 -24 34 -37 l20 -24 -23 8 c-22 6
-23 5 -13 -14 7 -12 17 -21 23 -21 6 0 8 -3 5 -7 -10 -10 -47 27 -68 70 -20
39 -9 51 22 25z m764 -127 c-5 -28 -16 -47 -43 -68 -61 -49 -68 -49 -35 -3 37
49 34 71 -3 25 -13 -16 -24 -24 -24 -17 0 8 21 41 47 73 38 49 48 57 56 44 5
-9 6 -33 2 -54z m174 26 c-31 -59 -60 -87 -92 -87 -18 0 -39 5 -47 10 -13 9
-12 12 5 23 11 6 33 14 49 17 16 3 31 11 34 18 2 7 -2 10 -12 6 -31 -12 -15
25 19 44 13 7 26 7 37 1 15 -8 16 -14 7 -32z m-713 -16 c24 -26 44 -61 48 -81
7 -34 6 -33 -28 20 -20 30 -36 48 -36 39 0 -8 7 -24 15 -35 27 -36 15 -38 -20
-4 -28 27 -35 42 -35 72 0 21 3 38 8 37 4 -1 26 -22 48 -48z m-51 -71 l29 -30
-37 0 c-20 0 -37 -4 -37 -10 0 -5 19 -10 43 -10 23 0 49 -5 57 -11 11 -8 1 -9
-37 -6 -51 4 -133 45 -133 66 0 7 43 23 81 30 3 1 18 -12 34 -29z m629 -25
c20 -8 36 -19 36 -24 0 -14 -87 -43 -117 -38 -26 4 -26 4 5 6 34 1 46 21 13
21 -30 0 -34 17 -9 34 27 20 27 20 72 1z m-354 -45 c0 -13 -1 -13 -10 0 -5 8
-10 22 -10 30 0 13 1 13 10 0 5 -8 10 -22 10 -30z m50 -6 c-18 -21 -24 -10 -8
15 7 12 14 17 16 11 2 -6 -2 -17 -8 -26z m-150 -20 c0 -14 -3 -14 -15 -4 -8 7
-15 14 -15 16 0 2 7 4 15 4 8 0 15 -7 15 -16z m50 -8 c0 -7 -5 -27 -11 -45 -9
-25 -14 -29 -25 -20 -12 10 -11 47 3 72 7 12 33 8 33 -7z m230 4 c0 -5 -4 -10
-10 -10 -5 0 -10 5 -10 10 0 6 5 10 10 10 6 0 10 -4 10 -10z m-30 -32 c18 -30
18 -32 2 -44 -15 -11 -19 -8 -34 19 -9 18 -17 38 -18 45 0 24 31 12 50 -20z
m-145 6 c33 -22 32 -36 -2 -28 -35 8 -47 19 -39 33 9 14 12 14 41 -5z m75 -4
c8 -15 8 -20 -3 -20 -14 0 -37 19 -37 32 0 16 30 7 40 -12z"/>
<path d="M1249 2994 c-20 -24 -39 -79 -39 -115 0 -51 64 -82 122 -60 39 15
108 88 108 115 0 33 -55 66 -122 73 -44 4 -56 2 -69 -13z"/>
<path d="M1615 2983 c-94 -28 -111 -71 -47 -119 20 -15 48 -38 61 -51 30 -29
49 -29 92 0 32 22 34 26 33 80 -2 103 -33 123 -139 90z"/>
<path d="M1447 2818 c-36 -81 -40 -103 -18 -129 21 -26 47 -21 61 13 6 16 9
18 9 7 1 -29 28 -43 56 -31 41 19 31 85 -23 160 -35 47 -56 42 -85 -20z"/>
</g>
</svg>
