<?xml version="1.0" standalone="no"?>
<!DOCTYPE svg PUBLIC "-//W3C//DTD SVG 20010904//EN"
 "http://www.w3.org/TR/2001/REC-SVG-20010904/DTD/svg10.dtd">
<svg version="1.0" xmlns="http://www.w3.org/2000/svg"
 width="300.000000pt" height="427.000000pt" viewBox="0 0 300.000000 427.000000"
 preserveAspectRatio="xMidYMid meet">
<metadata>
Created by potrace 1.10, written by Peter Selinger 2001-2011
</metadata>
<g transform="translate(0.000000,427.000000) scale(0.100000,-0.100000)"
fill="#000000" stroke="none">
<path d="M1409 4157 l-85 -112 -222 -3 -222 -2 0 -279 0 -278 98 -6 c53 -4
134 -7 180 -7 90 0 94 -3 72 -66 -10 -29 -11 -30 -78 -26 l-67 4 -52 -54 c-50
-54 -73 -103 -73 -158 0 -23 -6 -27 -56 -38 -32 -6 -65 -19 -76 -29 -18 -17
-19 -14 -12 130 5 112 4 150 -6 162 -11 13 -51 15 -276 15 -167 0 -265 -4
-269 -10 -4 -6 -9 -108 -12 -228 l-6 -217 -115 -90 c-62 -49 -118 -95 -124
-102 -7 -9 23 -36 114 -103 l123 -92 5 -221 5 -222 275 0 275 0 3 170 c1 93 7
174 12 179 5 5 7 0 3 -13 -8 -31 41 -80 88 -87 l36 -6 6 -60 c4 -48 11 -66 33
-89 32 -34 68 -36 70 -4 2 41 4 45 25 45 29 0 23 -51 -8 -65 -13 -5 -23 -15
-23 -23 0 -22 62 -52 108 -52 36 0 44 -4 52 -24 5 -13 14 -27 19 -31 8 -4 11
-195 11 -610 l0 -603 -175 5 c-132 4 -178 3 -190 -7 -13 -10 -15 -52 -15 -267
0 -156 4 -262 10 -274 10 -18 23 -19 220 -19 l209 0 97 -136 c56 -78 102 -134
110 -132 8 2 56 61 107 133 l93 130 215 5 214 5 0 280 0 280 -185 0 -185 0 4
599 c3 574 4 601 23 633 18 29 25 33 61 33 41 0 107 30 107 49 0 5 -11 16 -25
25 -30 20 -36 70 -8 64 11 -2 20 -15 23 -33 7 -38 34 -44 66 -14 26 24 44 75
44 125 0 29 3 32 39 38 49 7 95 57 85 90 -4 15 -3 18 5 11 6 -7 12 -74 13
-180 l3 -170 205 -3 c113 -2 238 0 278 3 l72 7 0 217 0 217 117 85 c65 47 119
92 121 101 2 9 -42 50 -116 109 l-119 94 -5 215 c-2 119 -8 221 -12 228 -5 9
-76 12 -270 12 -223 0 -265 -2 -276 -15 -10 -11 -11 -52 -8 -160 3 -80 3 -145
1 -145 -3 0 -16 9 -30 19 -13 11 -44 23 -68 26 -42 7 -43 8 -48 50 -9 82 -63
159 -135 191 -29 13 -48 13 -103 -2 -18 -5 -39 34 -39 71 l0 25 161 0 c91 0
169 4 180 10 18 10 19 24 19 285 0 213 -3 275 -12 275 -7 1 -107 1 -223 0
l-210 0 -85 115 c-46 63 -89 115 -95 115 -5 0 -48 -51 -96 -113z m181 -70 l74
-99 210 4 211 3 1 -237 1 -238 -91 -2 c-50 0 -131 -2 -181 -2 l-90 -1 2 -60
c2 -87 13 -146 28 -151 7 -3 30 4 51 15 21 12 49 21 63 21 22 0 23 -1 7 -25
-28 -42 -18 -95 18 -95 11 0 34 7 50 15 15 8 29 15 31 15 12 0 26 -69 23 -112
l-3 -53 35 3 c19 2 50 0 68 -3 33 -6 33 -7 18 -30 -9 -13 -16 -33 -16 -45 0
-18 6 -20 58 -20 31 0 63 4 70 8 9 6 12 51 11 183 l-2 174 237 3 236 2 0 -212
0 -213 116 -89 c107 -83 115 -91 97 -104 -10 -7 -62 -45 -115 -83 l-98 -70 0
-209 0 -210 -235 0 -235 0 0 175 0 175 -80 0 c-89 0 -101 -12 -58 -57 19 -20
20 -25 8 -34 -8 -5 -39 -6 -69 -3 -53 7 -54 6 -47 -17 12 -40 19 -107 12 -124
-5 -13 -8 -13 -26 5 -13 13 -33 20 -60 20 -35 0 -42 -4 -51 -27 -10 -25 -9
-66 2 -102 8 -26 -19 -22 -54 8 -44 40 -61 40 -52 2 7 -31 -17 -101 -34 -101
-8 0 -11 -199 -11 -640 l0 -640 190 0 190 0 0 -235 0 -235 -22 -1 c-13 -1
-108 -4 -213 -8 l-190 -6 -80 -112 c-44 -62 -83 -115 -86 -118 -4 -3 -46 48
-94 114 l-86 121 -148 0 c-81 0 -176 3 -210 6 l-61 7 0 233 0 234 190 0 190 0
0 630 c0 621 0 631 -21 659 -11 15 -23 49 -27 76 l-7 48 -30 -26 c-36 -30 -72
-40 -65 -17 7 22 5 92 -3 113 -10 27 -91 24 -111 -5 -14 -19 -16 -20 -22 -4
-7 18 -1 83 12 125 7 23 6 24 -47 17 -73 -8 -88 2 -59 42 12 16 19 35 16 41
-4 6 -38 11 -82 11 l-74 0 0 -42 c-1 -24 -2 -101 -3 -173 l-2 -130 -232 -3
-231 -2 -8 67 c-4 38 -4 129 -1 204 5 100 3 140 -6 151 -6 9 -55 46 -107 83
-52 37 -99 71 -103 75 -4 4 41 44 100 91 59 46 111 88 115 94 4 5 8 103 8 218
l0 207 235 0 235 0 2 -182 3 -183 65 0 c55 0 65 3 68 18 2 10 -4 27 -14 38
-26 28 -4 40 65 37 l54 -3 1 72 c1 84 13 103 47 79 67 -47 119 13 68 78 l-20
26 28 0 c16 0 46 -9 68 -20 22 -11 42 -20 45 -20 8 0 31 88 37 143 8 76 7 77
-193 77 l-174 0 2 238 3 237 212 0 212 0 78 103 c42 56 80 99 84 95 3 -5 39
-52 79 -106z m-500 -802 c11 -13 10 -14 -4 -9 -9 3 -16 10 -16 15 0 13 6 11
20 -6z m840 0 c-7 -9 -15 -13 -17 -11 -7 7 7 26 19 26 6 0 6 -6 -2 -15z
m-1103 -242 c-4 -3 -7 0 -7 7 0 7 3 10 7 7 3 -4 3 -10 0 -14z m1368 7 c-3 -5
-11 -10 -16 -10 -6 0 -7 5 -4 10 3 6 11 10 16 10 6 0 7 -4 4 -10z"/>
<path d="M1444 4005 l-59 -84 -198 -1 -197 0 2 -162 3 -163 178 -3 177 -2 0
-93 c0 -86 2 -95 24 -116 l25 -23 25 25 c18 18 26 37 26 59 l0 34 55 0 55 1 0
-34 c0 -23 8 -42 26 -60 l27 -27 23 28 c21 24 24 37 24 115 l0 89 175 7 175 7
0 159 0 159 -193 0 -194 0 -58 85 c-32 47 -59 85 -60 85 -1 0 -29 -38 -61 -85z
m41 -401 l-17 -71 -22 22 c-12 12 -30 26 -41 32 -18 11 -18 15 14 134 17 68
42 160 54 204 l22 80 3 -165 c2 -126 -1 -182 -13 -236z m85 201 c28 -103 50
-194 50 -201 0 -7 -9 -15 -20 -19 -11 -3 -28 -17 -39 -30 l-19 -25 -12 48
c-12 48 -27 432 -16 421 4 -3 29 -91 56 -194z m-47 -262 c6 -30 4 -33 -19 -33
-19 0 -24 4 -20 18 2 9 8 33 12 52 6 29 8 32 14 15 4 -11 10 -35 13 -52z"/>
<path d="M1476 3403 c-14 -21 -26 -43 -26 -49 0 -6 -9 -19 -19 -28 -19 -17
-21 -17 -56 10 -20 15 -42 36 -49 46 -13 18 -14 17 -32 -9 -10 -15 -19 -47
-19 -70 -1 -23 -4 -45 -7 -48 -3 -3 -21 3 -39 14 -49 30 -59 27 -59 -19 0 -21
-5 -50 -11 -63 l-11 -23 -46 22 c-27 13 -51 19 -56 14 -11 -11 -13 -96 -4
-132 l8 -26 -61 5 -60 6 20 -34 c31 -50 29 -144 -4 -209 -21 -42 -30 -50 -61
-56 l-36 -7 20 -20 c11 -11 34 -20 50 -21 28 -1 30 -4 37 -51 10 -65 10 -112
1 -152 l-8 -33 33 12 c19 6 39 15 46 20 19 15 27 -12 25 -85 l-3 -68 30 16
c17 8 37 15 45 15 20 0 43 -46 52 -99 9 -55 31 -51 61 9 l22 45 1 -63 c0 -63
22 -128 40 -117 4 3 11 19 15 35 14 62 93 69 154 14 l40 -35 16 24 c18 29 55
47 95 47 46 0 61 -10 79 -54 l18 -41 16 32 c12 22 15 45 11 76 -4 25 -2 52 3
62 9 15 12 13 22 -16 13 -37 39 -69 56 -69 7 0 12 17 12 44 0 26 7 56 17 71
16 25 22 27 62 21 l44 -6 -3 64 c-1 35 0 67 3 70 3 3 25 -2 49 -10 54 -18 72
-7 47 30 -19 29 -19 60 -3 136 11 50 15 55 40 57 28 2 57 19 57 33 0 4 -14 11
-32 16 -48 14 -77 79 -78 170 0 59 4 76 22 99 l22 28 -61 -5 -60 -6 9 40 c7
35 3 99 -8 120 -2 3 -28 -2 -56 -13 -29 -10 -54 -19 -55 -19 -9 0 -22 74 -17
95 6 25 5 27 -17 20 -13 -4 -34 -13 -46 -21 -36 -23 -43 -17 -43 35 0 34 -6
56 -19 72 l-20 24 -15 -21 c-9 -12 -31 -31 -50 -42 l-34 -20 -19 21 c-11 12
-25 36 -32 54 -22 56 -36 59 -65 16z m166 -213 c162 -50 297 -219 306 -382 10
-169 -54 -311 -181 -405 -177 -130 -445 -104 -590 56 -80 88 -117 186 -117
307 0 168 96 324 247 403 83 43 234 52 335 21z"/>
<path d="M1408 3179 c-106 -25 -226 -117 -273 -209 -127 -251 -19 -521 246
-610 192 -65 415 34 506 226 149 314 -141 673 -479 593z m148 -100 c32 -6 73
-19 90 -30 36 -22 74 -100 80 -164 l4 -40 -14 35 c-13 31 -15 32 -15 10 0 -14
15 -59 34 -100 37 -81 34 -100 -13 -100 -40 0 -62 -27 -62 -76 0 -39 -2 -42
-22 -36 -13 3 -28 12 -34 20 -9 12 -12 11 -23 -2 -10 -12 -17 -14 -27 -5 -19
16 -44 4 -44 -21 0 -11 -4 -20 -10 -20 -5 0 -10 6 -10 14 0 23 -20 30 -38 13
-14 -15 -16 -15 -27 0 -7 10 -17 13 -25 8 -7 -5 -26 -9 -42 -10 -25 -2 -28 1
-28 26 0 47 -17 79 -42 79 -55 1 -60 38 -18 132 22 51 38 138 22 123 -6 -5
-12 -19 -15 -30 -2 -11 -3 -3 -2 18 4 53 44 100 116 136 69 34 80 36 165 20z
m-6 -534 c0 -14 -4 -25 -10 -25 -11 0 -14 33 -3 43 11 11 13 8 13 -18z m-70
-17 c0 -5 -7 -8 -15 -8 -17 0 -18 2 -9 25 5 13 8 14 15 3 5 -7 9 -16 9 -20z
m120 17 c0 -8 -4 -15 -10 -15 -5 0 -10 7 -10 15 0 8 5 15 10 15 6 0 10 -7 10
-15z m-216 -54 c6 -37 5 -42 -8 -32 -7 6 -20 25 -27 42 -10 26 -10 32 2 40 19
11 25 2 33 -50z m36 49 c0 -5 -2 -10 -4 -10 -3 0 -8 5 -11 10 -3 6 -1 10 4 10
6 0 11 -4 11 -10z m230 -5 c11 -13 10 -20 -7 -42 -31 -43 -41 -39 -29 12 11
49 17 53 36 30z"/>
<path d="M1328 2873 c-23 -26 -40 -74 -34 -98 7 -28 42 -47 75 -40 34 7 103
73 99 93 -4 22 -48 50 -88 57 -27 5 -40 2 -52 -12z"/>
<path d="M1588 2864 c-37 -11 -49 -20 -54 -40 -5 -20 1 -31 32 -59 50 -44 75
-51 108 -30 21 14 26 25 26 59 0 47 -22 86 -48 85 -9 0 -38 -7 -64 -15z"/>
<path d="M1483 2768 c-25 -32 -43 -99 -33 -118 13 -24 38 -26 46 -5 6 14 8 13
20 -2 10 -14 16 -16 31 -7 25 16 22 74 -6 113 -24 33 -42 39 -58 19z"/>
<path d="M370 3085 c0 -210 9 -189 -105 -266 -36 -24 -63 -48 -62 -53 2 -5 39
-37 82 -70 l80 -62 0 -189 0 -190 162 -3 163 -2 2 172 3 173 113 3 c61 1 112
7 112 12 0 29 -22 60 -43 60 -33 0 -67 27 -83 67 -19 43 -8 58 40 58 47 0 77
33 79 86 l2 34 -105 5 -105 5 -3 173 -2 172 -165 0 -165 0 0 -185z"/>
<path d="M2310 3101 l0 -168 -31 -7 c-17 -3 -68 -6 -112 -6 l-80 0 6 -41 c9
-65 56 -106 101 -89 24 9 26 7 26 -16 0 -55 -27 -83 -102 -108 -12 -3 -18 -16
-18 -35 l0 -30 108 -3 107 -3 3 -174 2 -174 83 6 c45 4 117 7 160 7 l77 0 0
173 c0 94 3 181 6 193 3 11 39 47 80 79 41 32 74 61 74 64 -1 3 -28 26 -61 51
-108 80 -99 56 -99 265 l0 185 -165 0 -165 0 0 -169z"/>
<path d="M1360 2140 l-22 -22 3 -687 4 -686 -177 -3 -178 -2 0 -160 0 -160
189 0 189 0 67 -85 c36 -47 67 -85 69 -85 1 0 33 38 70 85 l67 85 190 0 190 0
-3 157 -3 158 -172 3 -173 2 -1 98 c-1 53 -5 369 -8 702 l-6 605 -34 3 c-48 5
-95 -40 -87 -83 6 -29 4 -30 -28 -30 -32 0 -33 1 -32 37 1 67 -72 110 -114 68z
m168 -252 l3 -98 -26 0 -25 0 0 101 c0 98 0 100 23 97 21 -3 22 -8 25 -100z
m17 -128 c4 -6 -12 -10 -42 -9 -36 0 -43 3 -28 9 28 12 63 12 70 0z m-15 -300
l0 -260 -25 0 -25 0 0 260 0 260 25 0 25 0 0 -260z m-3 -286 c13 -4 20 -10 17
-15 -7 -12 -71 -12 -78 0 -12 19 18 26 61 15z m3 -324 l0 -280 -25 0 -25 0 0
280 0 280 25 0 25 0 0 -280z m3 -317 c-13 -2 -35 -2 -50 0 -16 2 -5 4 22 4 28
0 40 -2 28 -4z m7 -68 c0 -45 0 -45 -35 -45 -35 0 -35 0 -35 45 0 45 0 45 35
45 35 0 35 0 35 -45z m15 -75 c-3 -5 -28 -10 -56 -10 -27 0 -49 5 -49 10 0 6
25 10 56 10 34 0 53 -4 49 -10z m-42 -37 c-7 -2 -19 -2 -25 0 -7 3 -2 5 12 5
14 0 19 -2 13 -5z"/>
</g>
</svg>
