<?xml version="1.0" standalone="no"?>
<!DOCTYPE svg PUBLIC "-//W3C//DTD SVG 20010904//EN"
 "http://www.w3.org/TR/2001/REC-SVG-20010904/DTD/svg10.dtd">
<svg version="1.0" xmlns="http://www.w3.org/2000/svg"
 width="300.000000pt" height="385.000000pt" viewBox="0 0 300.000000 385.000000"
 preserveAspectRatio="xMidYMid meet">
<metadata>
Created by potrace 1.10, written by Peter Selinger 2001-2011
</metadata>
<g transform="translate(0.000000,385.000000) scale(0.100000,-0.100000)"
fill="#000000" stroke="none">
<path d="M1473 3838 c-25 -31 -40 -74 -33 -93 9 -25 4 -36 -15 -28 -11 3 -15
-2 -15 -18 0 -14 -17 -39 -45 -66 -25 -23 -45 -47 -45 -53 0 -12 -27 -14 -32
-2 -6 13 -67 41 -73 33 -2 -5 3 -30 11 -55 12 -36 26 -54 58 -74 114 -72 115
-107 9 -215 -81 -82 -174 -131 -386 -203 -105 -35 -209 -75 -232 -89 -81 -47
-147 -132 -235 -304 -86 -170 -109 -198 -128 -156 -16 34 -67 58 -108 50 -105
-19 -143 -147 -70 -232 l24 -28 -49 -27 c-65 -38 -99 -91 -106 -165 -3 -32 0
-77 6 -101 23 -84 107 -149 206 -159 68 -7 118 10 172 60 l43 39 57 -43 c121
-90 256 -234 350 -374 50 -74 148 -270 196 -390 41 -104 99 -297 122 -405 51
-243 51 -516 0 -660 -28 -80 -21 -87 38 -34 29 27 78 61 108 76 51 25 62 27
200 27 l146 -1 70 -38 c39 -22 85 -56 102 -76 18 -20 35 -33 38 -30 3 3 -4 39
-16 79 -87 293 -19 751 175 1181 98 219 214 386 372 537 54 52 117 107 139
122 l42 29 35 -35 c134 -134 370 -50 393 141 10 89 -51 200 -127 232 -33 14
-38 25 -16 33 50 20 61 154 16 202 -53 57 -144 53 -180 -8 l-18 -30 -26 26
c-13 14 -57 89 -97 168 -115 231 -168 282 -360 348 -227 78 -314 113 -369 147
-105 64 -190 160 -190 214 0 29 24 55 78 86 37 21 72 79 72 119 0 25 -14 34
-25 16 -3 -6 -19 -17 -36 -25 -31 -15 -49 -14 -49 5 0 5 -18 25 -40 45 -30 27
-40 44 -40 66 0 24 -3 28 -13 19 -19 -15 -27 -4 -20 30 7 35 -34 109 -48 87
-7 -11 -11 -11 -17 0 -7 11 -11 11 -19 0z m37 -88 c0 -11 -4 -20 -10 -20 -5 0
-10 9 -10 20 0 11 5 20 10 20 6 0 10 -9 10 -20z m39 -108 c1 -13 -4 -33 -10
-44 -10 -18 -8 -25 10 -39 11 -9 21 -20 21 -23 0 -12 -34 -5 -52 11 -17 15
-19 15 -36 0 -20 -18 -52 -23 -52 -8 0 5 7 12 16 15 13 5 15 15 9 54 -6 42 -3
52 16 74 l23 26 28 -22 c15 -11 27 -31 27 -44z m-133 -47 c-3 -8 0 -15 6 -15
9 0 9 -3 1 -11 -13 -13 -57 7 -48 22 4 5 10 7 15 4 5 -3 11 -1 15 5 10 15 18
12 11 -5z m196 0 c20 0 17 -16 -6 -26 -20 -10 -29 -10 -38 -1 -9 9 -8 12 5 12
11 0 14 5 10 17 -5 12 -3 14 8 7 8 -5 17 -9 21 -9z m-274 -88 c23 -11 32 -12
29 -4 -2 7 -13 17 -25 23 -20 10 -20 10 -1 22 16 10 22 9 39 -8 11 -11 22 -31
26 -45 6 -26 18 -32 29 -15 16 25 24 6 10 -22 l-16 -33 30 35 c17 19 31 31 31
27 0 -13 -21 -50 -42 -73 -21 -24 -15 -62 7 -44 8 7 16 7 19 2 3 -6 -5 -17
-19 -26 -14 -9 -25 -26 -26 -39 0 -12 -7 11 -14 51 -15 83 -30 104 -97 138
-27 13 -48 26 -48 28 0 3 -3 13 -7 23 -5 16 -3 16 18 -3 13 -12 39 -28 57 -37z
m306 11 c-14 -11 -23 -22 -21 -25 6 -5 75 33 100 55 9 8 17 10 17 4 0 -14 -51
-56 -87 -71 -49 -20 -67 -63 -67 -161 -1 -96 11 -126 70 -184 65 -63 166 -107
399 -174 274 -80 345 -139 468 -394 53 -109 96 -164 144 -184 72 -31 136 -6
131 49 -2 22 -9 33 -21 35 -15 3 -18 0 -12 -17 5 -16 2 -21 -13 -21 -21 0 -32
18 -32 54 0 30 18 46 55 46 97 0 124 -144 35 -191 -60 -33 -129 -20 -188 35
-13 11 -62 86 -110 166 -98 165 -174 249 -264 293 -32 15 -158 52 -280 83
-123 30 -242 64 -265 75 -84 40 -166 164 -150 225 3 13 5 10 6 -9 1 -31 26
-97 37 -97 3 0 3 8 -1 18 -4 9 -13 59 -20 111 -11 75 -18 98 -35 111 -21 16
-18 33 5 24 24 -10 25 14 1 43 -13 15 -26 39 -30 53 l-7 25 20 -25 c11 -14 21
-28 21 -32 0 -5 5 -8 11 -8 6 0 2 15 -10 35 -20 35 -15 48 9 20 19 -22 28 -18
35 15 8 37 43 64 62 49 10 -9 8 -15 -13 -31z m-264 -268 c-26 -96 -142 -175
-347 -235 -387 -115 -431 -147 -564 -414 -33 -66 -71 -134 -85 -150 -25 -30
-110 -66 -119 -51 -3 5 8 11 24 15 15 3 40 18 53 33 29 30 96 146 154 267 27
56 58 100 105 148 78 79 137 109 320 162 208 60 376 155 437 248 30 45 38 37
22 -23z m356 -67 c97 -71 168 -104 329 -153 288 -86 341 -129 474 -385 84
-162 127 -221 168 -231 38 -10 26 -23 -12 -14 -65 15 -79 31 -158 190 -77 153
-124 220 -191 269 -79 59 -121 77 -313 134 -98 30 -209 70 -248 90 -106 53
-175 137 -175 210 0 15 7 11 29 -20 15 -21 59 -62 97 -90z m-326 -32 c-13 -25
-14 -49 -1 -35 5 5 16 34 24 64 12 43 15 48 16 25 0 -16 -10 -52 -23 -80 -53
-112 -156 -166 -381 -200 -112 -16 -171 -37 -297 -101 -110 -57 -152 -102
-255 -274 -102 -169 -117 -188 -167 -211 -53 -24 -103 -24 -142 0 -85 52 -55
191 41 191 38 0 55 -16 55 -50 0 -28 -16 -50 -38 -50 -9 0 -11 7 -7 21 6 17 3
20 -12 17 -25 -4 -30 -54 -7 -79 33 -37 129 -14 180 43 12 12 51 82 88 153 73
146 122 214 182 261 39 29 239 114 270 114 8 0 74 20 147 44 203 66 302 142
324 245 8 34 8 32 11 -21 2 -32 -2 -66 -8 -77z m155 -291 l6 -35 -16 25 -16
25 4 -26 c3 -22 0 -25 -19 -21 -28 5 -38 -12 -22 -38 17 -26 36 -26 48 3 5 12
9 16 9 9 1 -15 -28 -62 -39 -62 -4 0 -12 12 -19 27 -10 22 -14 24 -22 12 -12
-18 -12 -42 0 -34 5 3 12 1 16 -5 4 -6 -5 -10 -20 -10 -18 0 -28 7 -35 25 -5
14 -15 25 -21 25 -7 0 -8 7 -3 18 4 9 9 34 10 56 1 21 10 46 19 55 10 9 15 10
11 4 -4 -7 -3 -13 3 -13 5 0 11 6 14 13 2 6 9 -4 16 -23 l11 -35 -3 33 c-4 33
9 44 19 17 4 -8 11 -15 17 -15 7 0 7 4 -1 12 -7 7 -12 17 -12 22 0 24 40 -32
45 -64z m472 -26 c-10 -10 -177 -83 -177 -77 0 2 37 22 83 43 77 37 109 48 94
34z m133 -87 c-67 -34 -220 -133 -220 -143 0 -5 64 29 115 62 20 13 21 12 20
-51 l0 -64 -64 -27 c-80 -34 -197 -111 -236 -155 -32 -35 -29 -34 49 25 64 48
100 66 56 28 -19 -17 -38 -31 -41 -32 -4 0 -9 -7 -13 -15 -3 -8 18 4 47 26 29
23 51 46 49 51 -1 5 2 7 7 4 5 -3 34 6 66 20 61 28 73 27 56 -4 -15 -29 -14
-75 3 -98 14 -18 11 -19 -71 -31 -47 -7 -94 -19 -103 -28 -18 -17 -34 -20 -25
-6 7 12 -55 -5 -68 -18 -5 -5 -4 -12 4 -16 8 -6 10 -4 4 5 -6 10 -3 12 13 8
12 -4 20 -2 17 3 -3 4 7 8 22 8 15 0 79 3 141 7 l112 7 -10 -27 c-5 -15 -10
-39 -10 -53 0 -21 -4 -24 -22 -20 -67 17 -180 29 -244 25 -55 -2 -70 0 -63 9
13 15 -29 29 -44 14 -17 -17 0 -25 20 -10 15 11 15 10 -1 -9 -19 -22 -19 -22
4 -22 13 0 20 -3 16 -7 -3 -4 14 -20 40 -36 25 -15 48 -26 51 -24 2 3 -9 13
-26 23 -17 10 -31 22 -31 28 0 16 191 -1 258 -24 l62 -22 -30 -34 c-17 -20
-33 -51 -36 -74 -7 -45 -13 -48 -37 -22 -22 25 -113 89 -103 74 13 -21 -4 -13
-67 32 -80 57 -89 59 -91 19 0 -17 2 -29 7 -26 4 2 7 11 7 19 0 8 3 14 8 14
12 0 81 -48 144 -100 l57 -47 -52 -6 c-29 -3 -76 -16 -106 -28 l-54 -23 -38
43 -38 43 27 24 c15 13 22 24 16 24 -6 0 -17 -7 -24 -15 -7 -8 -20 -15 -29
-15 -11 0 -7 7 14 24 22 18 29 32 29 59 0 50 -19 70 -66 65 -21 -2 -38 0 -38
5 0 5 18 44 40 86 69 133 173 240 354 366 75 53 193 115 216 115 8 -1 -14 -15
-50 -33z m-247 -12 c-14 -29 -15 -42 -6 -65 10 -28 8 -32 -34 -71 -53 -49
-146 -93 -180 -84 -13 3 -23 9 -23 14 0 15 31 21 51 11 26 -14 25 4 -2 31
l-20 20 46 55 c26 30 42 54 36 54 -6 0 -28 -22 -48 -49 -21 -28 -44 -50 -51
-50 -22 -1 36 66 92 105 28 21 42 27 32 15 -24 -27 -13 -27 24 -1 23 16 84 47
97 50 2 0 -5 -16 -14 -35z m-433 -61 c0 -8 -4 -12 -10 -9 -5 3 -10 10 -10 16
0 5 5 9 10 9 6 0 10 -7 10 -16z m138 -41 c-47 -49 -74 -91 -64 -100 3 -3 11 6
17 21 11 23 18 26 59 26 26 0 50 -3 53 -7 13 -12 -28 -32 -53 -26 -23 6 -23 4
13 -35 46 -52 48 -87 8 -152 -16 -27 -40 -71 -52 -99 -22 -53 -66 -98 -81 -83
-4 4 -10 21 -13 37 -4 26 0 34 38 60 55 40 76 95 59 154 -13 42 -26 53 -77 65
-24 6 -28 5 -17 -5 25 -27 12 -48 -60 -98 -86 -57 -116 -88 -127 -127 -7 -27
-8 -26 -12 17 -3 34 -1 45 9 42 6 -3 12 0 12 6 0 6 6 11 13 11 6 0 37 23 67
50 l55 49 -60 -6 c-34 -3 -65 -12 -72 -20 -8 -11 -13 -11 -19 -2 -5 9 -10 5
-16 -12 -9 -23 -10 -23 -24 -5 -14 19 -14 19 -14 -2 0 -30 -12 -28 -30 5 l-16
28 61 31 c33 16 59 36 58 42 -2 7 2 12 7 12 6 0 49 36 96 80 48 44 90 80 94
80 16 0 -4 -52 -27 -67 -37 -25 -18 -28 21 -3 48 29 46 18 -1 -15 -38 -25 -39
-34 -3 -15 18 10 19 8 14 -22 -5 -32 -5 -32 14 8 11 23 25 45 31 48 15 10 14
29 -1 20 -29 -17 5 11 39 32 53 33 53 30 1 -23z m672 13 c-5 -15 -14 -24 -20
-21 -6 4 -4 16 6 31 21 31 28 26 14 -10z m-1392 -2 c21 -15 32 -42 12 -29 -19
11 -10 -15 12 -37 14 -14 16 -19 6 -15 -9 3 -24 -1 -35 -8 -17 -13 -17 -15 -1
-31 17 -17 18 -17 33 1 14 19 14 18 4 -10 -6 -16 -9 -32 -7 -33 2 -2 -11 -10
-29 -17 -37 -16 -56 -3 -42 30 6 17 8 17 8 3 1 -20 9 -22 30 -9 12 7 12 13 3
24 -15 17 -71 20 -90 4 -11 -8 -13 -8 -12 4 1 7 2 21 1 29 -1 13 -2 13 -11 0
-7 -11 -10 -7 -10 17 0 37 9 63 21 63 5 0 4 -11 -1 -25 -5 -14 -6 -25 -1 -25
5 0 12 14 16 31 l7 31 19 -28 c19 -29 28 -13 9 16 -6 9 -5 17 3 22 18 11 30
10 55 -8z m1359 -39 c20 -8 42 -23 49 -33 18 -23 17 -67 -1 -82 -12 -10 -15
-9 -15 4 0 11 -4 14 -12 10 -7 -5 -24 -8 -38 -8 -18 -1 -25 -6 -25 -21 0 -15
7 -20 28 -20 15 1 26 -4 24 -10 -2 -5 -10 -10 -18 -10 -8 0 -24 -4 -36 -8 -31
-11 -63 13 -79 58 -11 33 -3 62 10 30 7 -19 56 -20 56 -1 0 8 -5 18 -11 22 -6
3 -9 17 -6 30 2 13 0 21 -4 18 -5 -3 -9 -1 -9 5 0 10 28 30 43 31 4 0 24 -7
44 -15z m-497 -100 c-7 -8 -17 -12 -23 -8 -6 4 -3 9 9 14 27 11 28 11 14 -6z
m-46 -11 c9 -3 13 -10 10 -15 -8 -14 -31 -11 -38 6 -6 16 3 19 28 9z m-158
-42 c-18 -18 -31 -10 -23 12 4 10 13 13 22 9 15 -5 15 -7 1 -21z m32 -19 c-2
-10 -14 -20 -28 -22 -25 -3 -25 -3 -6 18 23 26 39 27 34 4z m12 -43 c0 -11 -6
-23 -14 -26 -17 -7 -56 12 -56 27 0 6 4 7 10 4 5 -3 18 -1 27 4 26 15 33 13
33 -9z m547 3 c-4 -3 -7 0 -7 7 0 7 3 10 7 7 3 -4 3 -10 0 -14z m-1187 -70
c-1 -10 -39 39 -40 51 0 5 9 -3 20 -17 11 -14 20 -29 20 -34z m1174 45 c-3 -4
-12 -8 -20 -8 -8 0 -13 4 -10 8 3 5 12 9 20 9 8 0 13 -4 10 -9z m-1045 -54
c23 -12 23 -12 2 -19 -11 -3 -29 -1 -41 5 -26 14 -25 19 3 13 21 -5 21 -5 3 9
-14 11 -17 21 -11 34 7 17 8 17 14 -6 4 -14 17 -30 30 -36z m464 42 l38 -13
-19 -23 -19 -23 -21 21 c-12 12 -22 29 -22 37 0 18 -4 18 43 1z m-66 -38 c-3
-7 -5 -2 -5 12 0 14 2 19 5 13 2 -7 2 -19 0 -25z m-265 -1 c-11 -12 -25 -33
-31 -47 -8 -21 -10 -22 -11 -5 0 17 -2 17 -10 5 -7 -11 -10 -11 -10 -2 0 23
21 53 43 62 36 15 42 11 19 -13z m745 6 c-4 -3 -10 -3 -14 0 -3 4 0 7 7 7 7 0
10 -3 7 -7z m40 1 c-3 -3 -12 -4 -19 -1 -8 3 -5 6 6 6 11 1 17 -2 13 -5z
m-477 -19 c16 -19 3 -40 -16 -24 -15 13 -19 39 -5 39 5 0 14 -7 21 -15z m387
8 c-4 -3 -10 -3 -14 0 -3 4 0 7 7 7 7 0 10 -3 7 -7z m-908 -128 c-1 -30 -1
-30 -8 -4 -5 14 -14 36 -21 49 -7 14 -14 38 -16 55 -2 26 1 23 21 -20 13 -27
24 -63 24 -80z m476 -14 c-2 -14 0 -30 6 -37 7 -8 7 -14 -1 -19 -6 -3 -8 -11
-5 -16 4 -5 2 -9 -3 -9 -15 0 -28 121 -17 170 l10 45 7 -55 c4 -30 5 -66 3
-79z m-1134 93 c241 -70 507 -333 681 -674 182 -355 297 -823 271 -1105 l-8
-90 -6 165 c-8 224 -49 417 -140 669 -62 173 -218 469 -309 585 -110 142 -289
300 -407 358 -61 30 -76 33 -156 33 -87 0 -89 0 -118 -32 -48 -55 -51 -107 -6
-158 46 -53 129 -49 135 6 5 42 -44 77 -56 41 -2 -7 3 -12 12 -12 9 0 16 -5
16 -11 0 -6 -10 -9 -22 -7 -33 4 -36 50 -7 77 49 46 129 13 149 -60 30 -112
-108 -196 -232 -141 -64 28 -118 109 -118 176 0 70 49 148 112 179 42 21 139
22 209 1z m2489 -4 c181 -92 110 -370 -96 -370 -114 0 -188 107 -132 190 37
55 101 65 143 24 23 -24 16 -68 -12 -72 -13 -2 -23 1 -23 7 0 6 7 11 15 11 8
0 15 4 15 9 0 17 -19 22 -40 11 -16 -9 -20 -19 -18 -43 6 -61 86 -68 135 -12
45 51 42 103 -6 158 -29 32 -31 32 -118 32 -83 0 -95 -3 -164 -37 -100 -49
-254 -180 -356 -302 -278 -331 -492 -906 -496 -1331 -1 -127 -2 -134 -9 -70
-22 185 30 515 125 790 178 516 491 902 817 1006 76 25 170 24 220 -1z m-1406
-11 c-1 -8 -4 -25 -9 -38 -4 -15 -4 -21 3 -17 20 12 19 -19 0 -52 -11 -18 -18
-36 -14 -39 3 -3 8 2 12 11 7 19 24 21 24 3 0 -7 -13 -23 -30 -35 -34 -25 -40
-47 -11 -37 11 3 22 1 26 -5 3 -5 -3 -10 -14 -10 -11 0 -23 -5 -27 -12 -15
-24 -13 -111 3 -135 9 -13 14 -26 11 -28 -2 -3 -15 14 -29 38 -20 34 -24 56
-24 119 0 70 3 80 32 122 31 44 31 46 17 76 -13 25 -13 34 -3 46 14 17 34 13
33 -7z m454 -26 c-21 -2 -57 -2 -80 0 -24 2 -7 4 37 4 44 0 63 -2 43 -4z
m-505 -70 c-9 -13 -21 -22 -27 -20 -18 6 -18 53 0 72 16 16 18 16 30 -6 10
-19 9 -27 -3 -46z m594 61 c-3 -3 -12 -4 -19 -1 -8 3 -5 6 6 6 11 1 17 -2 13
-5z m-299 -41 c6 -19 -25 -16 -32 3 -4 11 -1 14 11 12 9 -2 18 -9 21 -15z
m-1299 -12 c107 -33 283 -179 418 -346 171 -212 342 -576 419 -890 35 -144 29
-150 -11 -10 -65 236 -193 524 -314 706 -129 196 -266 332 -475 474 -94 64
-102 67 -145 62 -60 -7 -96 -45 -88 -94 7 -39 3 -41 -19 -8 -13 20 -14 30 -4
59 21 64 105 83 219 47z m1251 9 c0 -5 -4 -10 -10 -10 -5 0 -10 5 -10 10 0 6
5 10 10 10 6 0 10 -4 10 -10z m1118 4 c45 -9 72 -39 72 -79 0 -19 -4 -37 -10
-40 -5 -3 -10 1 -10 9 0 50 -51 96 -107 96 -68 0 -307 -179 -445 -333 -192
-215 -325 -459 -449 -827 -55 -164 -64 -170 -18 -11 75 262 190 521 317 711
101 152 286 341 415 425 66 43 164 63 235 49z m-1653 -14 c3 -5 0 -10 -9 -10
-8 0 -23 -3 -33 -6 -16 -5 -16 -4 1 10 23 19 32 20 41 6z m40 -64 c0 -45 2
-54 11 -42 7 11 27 16 60 16 l49 0 -2 -42 c-1 -24 -2 -46 -2 -49 -2 -13 -84
18 -97 36 -13 18 -14 18 -14 -2 0 -12 -5 -25 -12 -29 -7 -4 -8 -3 -4 5 4 6 0
14 -9 17 -13 5 -15 15 -11 40 5 26 3 33 -11 37 -16 4 -15 6 4 12 12 4 24 13
27 21 6 16 -10 19 -19 4 -4 -6 -10 -8 -15 -5 -11 7 21 44 35 41 6 -2 10 -29
10 -60z m437 44 c14 -11 31 -39 38 -64 7 -25 20 -51 28 -58 14 -11 15 -10 8 7
-4 10 19 -5 51 -35 33 -30 57 -61 55 -67 -2 -7 4 -13 14 -14 47 -2 -52 -20
-161 -29 -66 -6 -133 -13 -149 -16 -20 -4 -27 -2 -24 6 2 6 25 13 51 15 27 1
51 6 55 10 4 4 -14 5 -40 2 -29 -4 -48 -3 -48 3 0 6 -11 10 -25 10 -15 0 -25
6 -25 15 0 11 5 12 23 6 14 -5 38 -5 58 0 l34 8 -38 -2 c-28 -2 -36 0 -33 10
4 8 -5 18 -19 23 -28 11 -31 22 -11 39 10 8 16 9 21 1 8 -13 48 -13 62 1 26
26 46 -23 21 -50 -11 -11 -4 -12 42 -6 30 4 70 8 88 8 21 0 29 4 23 10 -12 12
-59 14 -89 3 -17 -6 -23 -3 -28 11 -3 10 -10 26 -16 37 -12 22 -28 118 -21
129 8 12 29 8 55 -13z m-233 -14 c15 -27 6 -89 -12 -83 -23 7 -36 48 -25 78
12 35 21 36 37 5z m332 -19 c-13 -13 -15 1 -4 30 7 17 8 17 11 -1 2 -10 -1
-23 -7 -29z m-35 -4 c-11 -11 -19 6 -11 24 8 17 8 17 12 0 3 -10 2 -21 -1 -24z
m-601 -12 c-3 -6 -14 -11 -23 -11 -15 1 -15 2 2 15 21 16 32 13 21 -4z m931
-53 c4 -7 -9 1 -29 16 -20 16 -37 30 -37 33 0 7 58 -36 66 -49z m-1392 -80
c55 -47 129 -119 164 -160 195 -225 379 -597 467 -942 45 -179 59 -290 53
-443 -4 -115 -3 -125 9 -98 10 21 13 23 9 8 -2 -13 -1 -23 3 -23 22 0 140 125
170 179 19 33 37 61 40 61 3 0 22 -28 41 -61 35 -62 143 -172 176 -181 18 -5
19 3 16 146 -5 212 30 391 129 661 55 150 184 411 257 520 111 166 309 367
433 439 30 17 32 18 26 2 -4 -10 -7 -24 -7 -31 0 -7 -37 -42 -83 -78 -193
-152 -325 -315 -446 -556 -136 -269 -213 -495 -258 -759 -22 -130 -23 -393 -1
-480 l15 -62 -34 26 c-48 37 -124 64 -178 64 l-46 0 16 30 c23 44 19 88 -17
167 -18 40 -35 72 -38 72 -3 0 -21 -31 -40 -70 -38 -76 -43 -133 -15 -175 l15
-24 -52 0 c-57 0 -121 -24 -176 -67 -29 -22 -33 -23 -28 -7 48 159 45 366 -10
626 -53 252 -110 411 -232 653 -127 249 -260 415 -443 554 -75 56 -84 66 -93
104 l-7 29 32 -19 c17 -10 77 -57 133 -105z m437 89 c-12 -12 -31 0 -31 19 0
12 3 12 20 2 11 -7 16 -16 11 -21z m426 16 c-4 -3 -10 -3 -14 0 -3 4 0 7 7 7
7 0 10 -3 7 -7z m-126 -24 c36 -25 39 -59 6 -59 -31 0 -47 18 -47 52 0 33 3
34 41 7z m-241 -4 c-7 -9 -15 -13 -19 -10 -3 3 1 10 9 15 21 14 24 12 10 -5z
m-31 -42 c-15 -17 -32 -2 -23 21 5 13 9 14 20 5 11 -9 12 -15 3 -26z m28 -61
c-16 -20 -31 2 -23 34 l7 28 13 -25 c9 -16 10 -28 3 -37z m25 36 c-6 -6 -15
-8 -19 -4 -4 4 -1 11 7 16 8 5 17 7 19 4 3 -2 -1 -10 -7 -16z m848 7 c0 -2 -9
-21 -20 -40 -11 -20 -18 -40 -15 -46 4 -5 2 -9 -4 -9 -6 0 -22 -21 -35 -47
-14 -27 -25 -40 -26 -30 0 23 78 177 90 177 6 0 10 -2 10 -5z m-705 -15 c3 -5
2 -10 -4 -10 -5 0 -13 5 -16 10 -3 6 -2 10 4 10 5 0 13 -4 16 -10z m107 -14
c16 -24 8 -46 -16 -46 -25 0 -56 32 -56 58 0 16 60 6 72 -12z m-218 -43 c3 -8
4 -18 1 -23 -3 -4 2 -13 10 -20 8 -7 15 -19 15 -27 0 -8 5 -24 12 -36 11 -21
23 -66 14 -56 -13 14 -74 139 -80 161 -5 21 -3 26 8 22 8 -3 17 -12 20 -21z
m255 -34 c11 -18 11 -23 -1 -30 -21 -14 -37 -10 -60 13 l-23 23 30 6 c17 4 32
7 35 8 3 0 11 -9 19 -20z m346 1 c3 -5 2 -10 -4 -10 -5 0 -13 5 -16 10 -3 6
-2 10 4 10 5 0 13 -4 16 -10z m-100 -10 c3 -5 4 -10 1 -10 -3 0 -8 5 -11 10
-3 6 -4 10 -1 10 3 0 8 -4 11 -10z m-17 -20 c42 -19 42 -19 42 0 0 24 9 25 55
6 38 -16 83 -89 67 -109 -5 -7 -17 -33 -27 -59 -10 -26 -23 -52 -30 -58 -7 -6
-50 -15 -95 -21 -116 -14 -174 -47 -151 -86 7 -12 10 -14 11 -4 0 11 4 11 18
-2 10 -10 31 -17 46 -17 40 0 41 -21 2 -95 -47 -88 -46 -128 6 -233 9 -17 9
-25 -1 -35 -11 -10 -12 -8 -7 9 6 18 0 25 -36 42 -24 11 -51 22 -60 25 -12 4
-15 12 -11 23 5 12 3 15 -6 9 -8 -4 -17 -2 -22 6 -7 11 -9 10 -9 -4 0 -10 -4
-15 -10 -12 -6 4 -10 -5 -10 -19 0 -28 -14 -35 -24 -11 -3 9 -12 12 -22 8 -15
-6 -9 11 33 86 1 2 18 -4 37 -13 39 -18 62 -20 71 -6 3 6 -4 10 -15 10 -16 0
-20 4 -16 16 3 9 6 28 7 42 l1 27 7 -25 7 -25 6 30 c9 45 -21 104 -75 145 -25
19 -48 44 -51 55 -8 29 -7 75 2 75 4 0 32 20 62 45 63 52 185 115 223 115 14
0 29 5 32 10 4 6 -5 10 -20 10 -15 0 -24 4 -20 10 11 17 -9 11 -48 -16 -31
-20 -41 -23 -53 -14 -19 17 -18 57 4 69 24 14 31 13 80 -9z m172 -2 c0 -13
-23 -5 -28 10 -2 7 2 10 12 6 9 -3 16 -11 16 -16z m-330 -8 c0 -5 -8 -6 -17
-3 -16 6 -16 4 -5 -9 11 -14 10 -18 -7 -27 -27 -15 -46 -14 -60 3 -9 11 -4 17
26 29 45 19 63 21 63 7z m26 -48 c-12 -11 -17 7 -9 34 l8 29 3 -28 c2 -16 1
-31 -2 -35z m-31 -21 c-8 -13 -35 -15 -35 -2 0 5 8 11 18 13 21 5 26 2 17 -11z
m375 -21 c-5 -17 -56 -125 -113 -240 -86 -170 -105 -202 -105 -174 0 19 10 49
24 69 13 19 21 35 18 35 -2 0 0 6 5 13 6 6 43 77 84 157 77 153 86 170 92 170
2 0 0 -14 -5 -30z m-622 -35 c-3 -3 -9 2 -12 12 -6 14 -5 15 5 6 7 -7 10 -15
7 -18z m57 -25 c4 -6 -7 -10 -25 -10 -18 0 -29 4 -25 10 3 6 15 10 25 10 10 0
22 -4 25 -10z m43 -47 c-2 -9 -9 -18 -16 -21 -11 -3 -12 0 -2 18 11 20 10 22
-5 16 -13 -5 -16 -2 -11 10 3 8 6 21 6 27 0 6 7 1 16 -11 8 -12 14 -30 12 -39z
m-133 -2 c-3 -11 -1 -22 5 -26 11 -7 4 -25 -11 -25 -10 0 -12 30 -3 54 9 23
17 20 9 -3z m55 16 c0 -2 -9 -12 -20 -22 -17 -16 -20 -16 -20 -2 0 8 8 18 18
20 9 3 18 5 20 6 1 0 2 -1 2 -2z m609 -59 c1 -10 -6 -18 -14 -18 -16 0 -22 50
-8 64 8 8 21 -19 22 -46z m-48 -39 c-6 -18 -6 -29 0 -29 5 0 9 -13 9 -30 0
-33 -14 -39 -28 -13 -8 14 -12 13 -27 -10 -36 -55 -32 -24 6 52 21 43 40 85
40 92 1 8 4 4 6 -9 3 -13 0 -36 -6 -53z m-544 24 c-9 -9 -20 -13 -24 -9 -4 4
1 14 11 22 25 18 35 8 13 -13z m50 0 c-4 -3 -7 0 -7 7 0 7 3 10 7 7 3 -4 3
-10 0 -14z m416 -3 c-6 -24 -23 -37 -23 -18 0 12 18 38 26 38 1 0 0 -9 -3 -20z
m-490 -37 c-6 -15 -43 -18 -43 -3 0 6 5 19 12 29 11 18 13 18 24 3 6 -9 10
-22 7 -29z m109 12 c4 -16 1 -24 -6 -22 -6 2 -12 16 -14 31 -4 35 14 26 20 -9z
m345 13 c-4 -24 -41 -58 -64 -58 -10 0 -13 9 -11 33 3 29 6 32 36 31 17 -1 32
2 32 7 0 5 2 9 5 9 3 0 3 -10 2 -22z m-97 -28 c0 -11 -7 -20 -15 -20 -15 0
-21 21 -8 33 12 13 23 7 23 -13z m-300 6 c0 -3 -5 -8 -12 -12 -7 -4 -8 -3 -4
4 7 12 16 16 16 8z m-13 -26 c13 0 13 -3 3 -15 -12 -14 -50 -21 -50 -9 0 16
24 48 28 36 2 -6 11 -12 19 -12z m423 15 c0 -2 -13 -18 -30 -35 -16 -17 -30
-39 -30 -50 0 -11 -9 -24 -20 -30 -11 -6 -20 -9 -20 -8 2 29 34 83 61 102 38
27 39 28 39 21z m-383 -32 c-4 -3 -7 0 -7 7 0 7 3 10 7 7 3 -4 3 -10 0 -14z
m103 -33 c13 -9 13 -11 0 -20 -22 -15 -30 -12 -30 10 0 22 8 25 30 10z m-93
-17 c-4 -3 -7 0 -7 7 0 7 3 10 7 7 3 -4 3 -10 0 -14z m63 -27 c0 -21 -22 -37
-36 -25 -10 8 -10 16 -2 35 9 18 14 21 25 13 7 -6 13 -17 13 -23z m66 0 c3 -8
-2 -26 -11 -40 -11 -17 -15 -35 -11 -52 6 -24 5 -26 -16 -20 -13 3 -29 6 -35
6 -21 0 -15 43 12 83 27 38 52 48 61 23z m284 -6 c-6 -11 -15 -20 -20 -20 -14
0 -12 27 3 33 23 10 28 7 17 -13z m-380 -56 c0 -25 -35 -12 -38 14 -3 21 -1
22 17 12 12 -6 21 -18 21 -26z m-7 -31 c9 -9 -12 -33 -29 -33 -8 0 -14 9 -14
20 0 19 28 28 43 13z m237 -42 c0 -6 -5 -13 -11 -17 -7 -4 1 -18 21 -39 39
-40 50 -97 26 -143 -17 -33 -34 -45 -78 -56 -39 -9 -37 16 1 31 23 8 32 20 41
52 10 37 8 48 -14 96 -29 61 -31 71 -13 78 19 8 27 8 27 -2z m-233 -18 c-4 -3
-7 0 -7 7 0 7 3 10 7 7 3 -4 3 -10 0 -14z m-24 -48 c-3 -9 -8 -14 -10 -11 -3
3 -2 9 2 15 9 16 15 13 8 -4z m325 -2 c6 -19 -25 -16 -32 3 -4 11 -1 14 11 12
9 -2 18 -9 21 -15z m-188 -33 c8 0 29 -11 45 -25 18 -15 23 -22 11 -18 -13 4
-27 -3 -47 -27 -34 -38 -37 -56 -9 -56 11 0 20 5 20 11 0 5 11 15 25 22 21 9
25 9 25 -4 0 -8 -9 -17 -20 -20 -11 -3 -20 -9 -20 -13 0 -4 -14 -10 -31 -12
-24 -4 -37 1 -55 19 -31 31 -30 37 5 30 22 -5 31 -2 36 11 6 16 -18 42 -39 42
-6 0 -5 5 2 12 7 7 12 21 12 32 0 16 3 17 12 8 7 -7 19 -12 28 -12z m-90 -38
c0 -13 -4 -20 -10 -17 -5 3 -10 21 -10 38 0 24 3 28 10 17 5 -8 10 -25 10 -38z
m-43 16 c-3 -8 -6 -5 -6 6 -1 11 2 17 5 13 3 -3 4 -12 1 -19z m324 -61 c-8 -8
-11 -3 -11 19 1 25 2 27 11 11 8 -14 8 -22 0 -30z m-47 -72 c-4 -8 -10 -12
-15 -9 -11 6 -2 24 11 24 5 0 7 -7 4 -15z m-122 -55 c-4 -27 -2 -30 23 -30 23
0 25 -3 19 -22 -4 -13 -15 -39 -25 -58 -11 -19 -22 -49 -25 -67 -3 -18 -10
-30 -15 -27 -12 7 -92 165 -86 170 16 17 77 -67 77 -106 0 -7 3 -10 7 -6 4 4
-4 37 -17 75 -27 78 -23 101 18 101 26 0 28 -3 24 -30z m275 -152 c-3 -7 -5
-2 -5 12 0 14 2 19 5 13 2 -7 2 -19 0 -25z m-500 -60 c-3 -7 -5 -2 -5 12 0 14
2 19 5 13 2 -7 2 -19 0 -25z m490 10 c-3 -8 -6 -5 -6 6 -1 11 2 17 5 13 3 -3
4 -12 1 -19z m-480 -45 c-4 -3 -7 0 -7 7 0 7 3 10 7 7 3 -4 3 -10 0 -14z m470
0 c-4 -3 -7 0 -7 7 0 7 3 10 7 7 3 -4 3 -10 0 -14z m-440 -365 c-3 -7 -5 -2
-5 12 0 14 2 19 5 13 2 -7 2 -19 0 -25z m233 -32 c10 -44 -9 -121 -30 -121
-13 0 -38 54 -39 87 -1 10 7 36 16 58 15 33 20 38 31 26 7 -7 17 -30 22 -50z
m188 -1 c0 -16 -2 -15 -8 5 -4 14 -8 34 -8 45 0 16 2 15 8 -5 4 -14 8 -34 8
-45z"/>
<path d="M1440 2890 c0 -7 3 -10 7 -7 3 4 3 10 0 14 -4 3 -7 0 -7 -7z"/>
<path d="M1441 2827 c-16 -16 -13 -44 6 -51 18 -7 33 9 33 35 0 21 -24 31 -39
16z"/>
<path d="M1864 2532 c-71 -66 -125 -131 -183 -221 -36 -57 -46 -91 -20 -75 5
3 7 9 4 13 -12 21 140 219 227 295 29 25 48 46 43 46 -6 0 -38 -26 -71 -58z"/>
<path d="M1780 2325 c-19 -19 -29 -35 -24 -35 11 0 45 34 58 58 12 21 1 14
-34 -23z"/>
<path d="M1432 2515 c-24 -13 -50 -21 -59 -18 -11 4 -14 3 -9 -5 11 -19 81
-15 98 6 41 48 33 53 -30 17z"/>
<path d="M860 2646 c0 -2 7 -7 16 -10 8 -3 12 -2 9 4 -6 10 -25 14 -25 6z"/>
<path d="M2182 2478 c-7 -9 -6 -17 3 -25 15 -14 25 -7 25 19 0 21 -13 24 -28
6z"/>
<path d="M1322 266 c-69 -67 -79 -86 -29 -56 17 11 49 20 69 20 l37 0 -2 50
c-1 27 -4 49 -7 48 -3 0 -33 -28 -68 -62z m58 -6 c0 -5 -7 -10 -16 -10 -8 0
-12 5 -9 10 3 6 10 10 16 10 5 0 9 -4 9 -10z"/>
<path d="M1602 298 c0 -18 -2 -39 -4 -47 -2 -11 11 -17 45 -22 27 -4 59 -15
73 -23 45 -30 24 1 -43 63 -36 33 -67 61 -69 61 -1 0 -2 -15 -2 -32z m43 -38
c3 -5 -1 -10 -9 -10 -9 0 -16 5 -16 10 0 6 4 10 9 10 6 0 13 -4 16 -10z"/>
</g>
</svg>
